<?xml version="1.0" encoding="UTF-8" standalone="no"?>
<!-- Created with Inkscape (http://www.inkscape.org/) -->

<svg
   width="210mm"
   height="75mm"
   viewBox="0 0 210 75"
   version="1.1"
   id="svg5"
   xml:space="preserve"
   inkscape:version="1.2 (dc2aedaf03, 2022-05-15)"
   sodipodi:docname="logo_inv.svg"
   inkscape:export-filename="logo_inv.png"
   inkscape:export-xdpi="450.016"
   inkscape:export-ydpi="450.016"
   xmlns:inkscape="http://www.inkscape.org/namespaces/inkscape"
   xmlns:sodipodi="http://sodipodi.sourceforge.net/DTD/sodipodi-0.dtd"
   xmlns="http://www.w3.org/2000/svg"
   xmlns:svg="http://www.w3.org/2000/svg"><sodipodi:namedview
     id="namedview7"
     pagecolor="#ffffff"
     bordercolor="#666666"
     borderopacity="1.0"
     inkscape:showpageshadow="2"
     inkscape:pageopacity="0.0"
     inkscape:pagecheckerboard="0"
     inkscape:deskcolor="#d1d1d1"
     inkscape:document-units="mm"
     showgrid="false"
     inkscape:zoom="1.1893044"
     inkscape:cx="364.91919"
     inkscape:cy="80.719452"
     inkscape:window-width="1920"
     inkscape:window-height="1009"
     inkscape:window-x="-8"
     inkscape:window-y="-8"
     inkscape:window-maximized="1"
     inkscape:current-layer="layer1" /><defs
     id="defs2" /><g
     inkscape:label="Ebene 1"
     inkscape:groupmode="layer"
     id="layer1"
     transform="translate(0,-222)"><path
       id="path2967"
       style="font-weight:300;font-size:57.1068px;line-height:1.25;font-family:'Segoe UI';-inkscape-font-specification:'Segoe UI Light';letter-spacing:-3.56696px;word-spacing:0px;fill:#ffffff;fill-opacity:1;stroke-width:1.81999"
       d="M 201.22544 227.00021 C 201.05298 227.00003 200.71673 227.10561 200.36141 227.28133 C 199.88767 227.51558 198.5517 228.06371 197.39209 228.49934 C 196.23246 228.93497 194.72611 229.53994 194.045 229.84397 C 193.3639 230.148 191.6728 230.60611 190.28709 230.86147 C 188.90138 231.11684 187.22446 231.42858 186.56019 231.55446 C 185.89591 231.68029 185.35199 231.88364 185.35199 232.00662 C 185.35199 232.12966 185.53314 232.18103 185.75455 232.12083 C 185.97598 232.06062 186.38688 231.94683 186.66768 231.86813 C 186.94847 231.78955 187.8804 231.63926 188.73835 231.53378 C 191.64939 231.17575 192.11425 231.06353 193.85277 230.30285 C 194.80802 229.88487 196.77986 229.07214 198.23493 228.49624 C 199.68998 227.92035 201.00909 227.39682 201.16653 227.33352 C 201.32393 227.27009 201.4014 227.1367 201.3381 227.0369 C 201.32229 227.01195 201.28293 227.00027 201.22544 227.00021 z M 94.509993 231.61647 C 94.242601 231.61575 93.928557 231.66204 93.720894 231.73946 C 93.221958 231.92557 93.222737 231.92864 93.792725 232.06243 C 94.109043 232.13671 95.040457 232.22899 95.862882 232.26759 L 95.862882 232.26707 C 97.874273 232.36207 100.31988 232.37099 99.313835 232.27999 C 98.621972 232.21745 97.752055 232.09387 94.755973 231.63352 C 94.682851 231.62226 94.599124 231.61671 94.509993 231.61647 z M 91.49209 232.00456 C 91.387849 232.00456 91.283332 232.02048 91.204252 232.05158 C 91.046093 232.11362 91.175771 232.16475 91.49209 232.16475 C 91.808402 232.16475 91.937569 232.11378 91.779411 232.05158 C 91.700331 232.02048 91.596331 232.00456 91.49209 232.00456 z M 184.88174 232.02471 C 184.77056 232.03495 184.57927 232.06613 184.33138 232.10274 C 183.29398 232.25596 180.75124 233.44245 180.75124 233.77344 C 180.75124 233.89502 180.64132 233.99462 180.50733 233.99462 C 180.37349 233.99462 180.32084 233.90465 180.39054 233.79463 C 180.46387 233.67903 180.1547 233.67143 179.65673 233.77654 C 179.18326 233.87644 177.89692 234.06206 176.79799 234.18892 C 175.33986 234.35724 174.54804 234.57401 173.86897 234.99197 C 173.35719 235.30696 172.78722 235.56455 172.60238 235.56455 C 172.41754 235.56455 172.2112 235.65211 172.1435 235.75885 C 172.07587 235.86559 171.39681 236.07254 170.63455 236.21877 C 169.87231 236.36498 169.24858 236.52976 169.24858 236.58516 C 169.24858 236.77686 170.65896 236.68509 171.73474 236.42341 C 172.69069 236.1909 173.96947 235.52068 174.31804 235.06897 C 174.53279 234.79065 178.62653 234.23827 179.47742 234.37289 C 180.11674 234.47405 180.48111 234.37774 181.15535 233.92899 C 181.62906 233.6137 182.48252 233.15575 183.05188 232.91148 C 184.82457 232.15093 185.21528 231.99401 184.88174 232.02471 z M 90.527808 232.20351 C 90.313853 232.20163 90.074774 232.30146 89.996574 232.42469 C 89.816632 232.70857 90.121211 232.70857 90.571733 232.42469 C 90.86911 232.23732 90.863052 232.20751 90.527808 232.20351 z M 101.3566 232.45311 C 101.23151 232.45151 101.09799 232.46497 100.98608 232.49342 L 100.98608 232.49393 C 100.76224 232.55068 100.8897 232.60155 101.26927 232.60555 C 101.64895 232.61021 101.8317 232.5636 101.67596 232.5022 C 101.59808 232.47115 101.48169 232.45471 101.3566 232.45311 z M 102.53431 232.6779 C 102.43007 232.6779 102.32606 232.69331 102.24699 232.72441 C 102.08883 232.78644 102.21799 232.83758 102.53431 232.83758 C 102.85057 232.83758 102.98032 232.78661 102.82215 232.72441 C 102.74307 232.69331 102.63855 232.6779 102.53431 232.6779 z M 89.27207 232.75645 C 89.257805 232.755 89.230995 232.75992 89.191455 232.77092 C 88.618169 232.93043 83.28654 235.76236 82.558268 236.29422 C 82.347446 236.44819 82.150636 236.82657 82.121086 237.13499 C 82.072712 237.63982 82.088516 237.65099 82.277665 237.24713 C 82.393229 237.00068 82.495108 236.8895 82.504008 237.00115 C 82.512901 237.11279 82.72471 237.02388 82.97478 236.80323 C 83.224846 236.58257 83.389096 236.33831 83.339616 236.26011 C 83.290137 236.18206 83.499549 236.00284 83.805221 235.8622 C 84.110901 235.7216 84.302948 235.69823 84.232068 235.81001 C 84.161183 235.92183 84.222654 236.0131 84.368494 236.0131 C 84.514334 236.0131 84.68119 235.83527 84.73953 235.61777 C 84.853135 235.19421 85.339027 234.88209 88.041138 233.49594 C 88.871472 233.06998 89.37193 232.76661 89.27207 232.75645 z M 103.68463 232.90218 C 103.58038 232.90218 103.47639 232.91759 103.39731 232.94869 C 103.23916 233.01082 103.36831 233.06186 103.68463 233.06186 C 104.00089 233.06186 104.1301 233.01089 103.97195 232.94869 C 103.89287 232.91759 103.78887 232.90218 103.68463 232.90218 z M 105.75685 233.12025 C 104.78455 233.14171 104.76284 233.15534 105.4101 233.33471 C 105.78968 233.43992 106.48858 233.5852 106.9635 233.6582 C 107.43842 233.73113 107.9561 233.93409 108.11381 234.10882 C 108.32359 234.34122 108.70943 234.39037 109.55094 234.29227 C 110.18357 234.21852 110.74415 234.12117 110.79685 234.07627 C 110.99254 233.90933 110.67141 233.80826 109.55094 233.68352 C 108.9183 233.61314 108.03907 233.4524 107.59705 233.32644 C 107.15505 233.20051 106.32706 233.10765 105.75685 233.12025 z M 112.63912 233.52281 C 111.90205 233.53145 111.16459 233.57987 111.08159 233.66079 C 111.026 233.71499 111.12013 233.92277 111.29036 234.12277 C 111.57391 234.4559 111.61185 234.45287 111.74512 234.08247 C 111.88233 233.70114 111.90564 233.70279 112.15181 234.11657 C 112.38317 234.5054 112.41349 234.51053 112.41949 234.16257 C 112.42502 233.85264 112.62794 233.77034 113.38481 233.77034 C 113.912 233.77034 114.27626 233.70481 114.19406 233.62461 C 114.11304 233.54565 113.37619 233.51417 112.63912 233.52281 z M 115.3542 233.88765 C 115.27732 233.88448 115.25036 233.91319 115.29477 233.98325 C 115.37698 234.11296 115.57531 234.21889 115.73557 234.21889 C 116.35797 234.21889 117.55347 235.98864 116.96289 236.03584 C 116.8087 236.04813 116.93346 236.12639 117.24039 236.20999 C 117.54733 236.29362 117.84095 236.48544 117.89255 236.63632 C 117.95436 236.81704 117.84238 236.86131 117.5644 236.76551 C 117.21927 236.64662 117.19476 236.67537 117.43004 236.9226 C 117.6537 237.15762 117.77912 237.16503 117.99383 236.95568 C 118.37707 236.58197 118.64995 236.6189 118.49096 237.02286 C 118.40646 237.23758 118.49488 237.35927 118.73539 237.35927 C 118.94269 237.35927 119.1691 237.50261 119.2382 237.67811 C 119.30728 237.85365 119.5162 238.05418 119.70277 238.12408 C 119.92928 238.20882 119.98554 238.15867 119.87124 237.97319 C 119.74498 237.76861 119.79616 237.77213 120.06709 237.9861 C 120.27587 238.15121 120.67457 238.21708 120.99106 238.13958 C 121.33953 238.0543 121.64922 238.12303 121.81944 238.32303 C 121.97837 238.50969 122.33016 238.59782 122.66538 238.53542 C 123.02725 238.46798 123.23899 238.53118 123.23899 238.70647 C 123.23899 238.92462 123.31382 238.92376 123.58936 238.70079 C 123.8806 238.46508 123.91657 238.47634 123.80175 238.76797 C 123.7044 239.01529 123.7852 239.10144 124.07563 239.05994 C 124.46882 239.00368 124.66036 239.10631 125.43885 239.7922 C 125.72714 240.04621 125.84286 240.04621 126.15871 239.7922 C 126.49745 239.51978 126.50783 239.53987 126.26206 239.9896 C 126.02646 240.42051 126.04055 240.46944 126.36593 240.34772 C 126.68845 240.22704 126.70461 240.27657 126.47807 240.6893 C 126.18022 241.23192 126.486 241.34537 126.90853 240.84898 C 127.20154 240.50476 127.92916 240.6258 127.70383 240.98127 C 127.6304 241.09711 127.6951 241.33854 127.84801 241.51819 C 128.08278 241.79395 127.98788 241.84957 127.23564 241.87527 C 126.59913 241.89714 126.50897 241.93531 126.9199 242.00911 C 127.23621 242.06581 127.61943 242.21206 127.77205 242.33416 C 127.92469 242.45636 128.15726 242.49149 128.28881 242.41219 C 128.42032 242.33294 128.6489 242.52625 128.79627 242.84162 C 128.94366 243.15699 129.15705 243.41523 129.27066 243.41523 C 129.38426 243.41523 129.41411 243.315 129.33681 243.19302 C 129.25514 243.06412 129.35109 243.02922 129.56625 243.10982 C 129.76981 243.18601 129.88258 243.38542 129.81688 243.55269 C 129.69807 243.85456 130.53137 244.45945 130.91604 244.35057 C 131.02644 244.3193 131.05605 244.44935 130.98115 244.63944 C 130.89927 244.84747 130.97061 244.98516 131.16099 244.98516 C 131.35177 244.98516 131.43456 245.14429 131.36976 245.38617 C 131.3088 245.61345 131.46811 245.9693 131.73666 246.20627 C 131.99751 246.43643 132.21053 246.79258 132.21053 246.99796 C 132.21053 247.20336 132.52135 247.71049 132.90093 248.12502 C 133.28052 248.53956 133.59081 248.94451 133.59081 249.02471 C 133.59081 249.25553 132.14299 249.13735 131.63538 248.86503 C 130.96435 248.50505 129.67994 247.07053 129.67994 246.68118 C 129.67994 246.4972 129.44735 246.22591 129.16266 246.07863 C 128.87797 245.93135 128.50943 245.6252 128.3441 245.39806 C 128.17877 245.1709 127.83625 244.98516 127.58291 244.98516 C 127.32956 244.98516 127.17009 244.9092 127.22789 244.8167 C 127.28574 244.72418 126.87674 244.30816 126.31942 243.8922 C 125.42757 243.22654 125.12007 243.12977 123.75472 243.08347 C 121.88563 243.02007 120.33578 242.63079 120.06347 242.15639 C 119.88356 241.8429 119.77388 241.84492 118.96328 242.17758 C 117.94691 242.5947 116.16124 242.46694 115.96295 241.96312 C 115.89829 241.79888 115.635 241.61098 115.37797 241.54558 C 115.12089 241.48004 114.97873 241.3186 115.06223 241.18694 C 115.41536 240.62985 114.59482 241.00916 113.94188 241.70474 C 113.20154 242.49342 111.73744 243.51128 112.04639 243.02249 C 112.15908 242.84419 112.09307 242.74189 111.86501 242.74189 C 111.39508 242.74189 111.41072 242.48315 111.90893 242.01428 C 112.13035 241.80588 112.56781 241.37953 112.88148 241.06705 C 113.19514 240.75456 113.58366 240.49913 113.74448 240.49913 C 113.9053 240.49913 114.03697 240.38575 114.03697 240.24695 C 114.03697 240.08746 113.78842 240.04273 113.36156 240.12603 C 112.76516 240.24234 112.69753 240.20193 112.78123 239.77824 C 112.84716 239.44446 112.80244 239.36952 112.63499 239.53278 C 112.42439 239.7381 112.27182 240.19459 112.21382 240.79265 C 112.20414 240.89255 112.11597 240.92607 112.01797 240.86707 C 111.91994 240.80809 111.47997 240.83633 111.04025 240.93063 C 110.40722 241.06625 110.13701 241.01134 109.74266 240.66708 C 109.24715 240.23454 109.243 240.23568 108.86002 240.80557 C 108.47867 241.37304 108.53006 242.32719 108.98818 243.1832 C 109.08938 243.37232 109.22925 243.70592 109.29875 243.92424 C 109.36823 244.14256 109.78042 244.52588 110.21498 244.77587 C 111.1901 245.33683 111.37192 245.75544 110.9276 246.4166 C 110.73872 246.69755 110.65366 246.99536 110.73846 247.07806 C 111.05154 247.38334 111.22975 247.21385 111.11105 246.72356 C 111.00179 246.2725 111.02211 246.25775 111.30483 246.583 C 111.4788 246.78314 111.82847 247.00209 112.08153 247.06979 C 112.9283 247.29663 115.22046 248.29237 115.48132 248.5467 C 115.62314 248.68505 115.9067 248.79836 116.11126 248.79836 C 116.49639 248.79836 120.018 251.9222 120.018 252.26379 C 120.018 252.36992 119.83686 252.30225 119.61544 252.11392 C 119.39402 251.92562 118.95404 251.64458 118.63772 251.48916 C 118.25517 251.3012 118.40186 251.5161 119.07542 252.13046 L 120.08776 253.05392 L 119.51415 253.4942 C 118.8443 254.00791 117.86551 253.97476 117.3024 253.41979 C 116.96473 253.08685 116.9618 253.05403 117.2807 253.17122 C 117.58951 253.2848 117.651 253.10834 117.66 252.07723 C 117.66889 251.11309 117.60202 250.87427 117.34943 250.96877 C 117.17233 251.03505 117.02748 251.15524 117.02748 251.23594 C 117.02748 251.31653 116.77004 251.65289 116.45542 251.9837 C 115.94921 252.51597 115.92283 252.62346 116.22546 252.91853 C 116.41357 253.10193 116.56723 253.33499 116.56653 253.43632 C 116.56593 253.53766 116.20314 253.23659 115.76089 252.76711 C 115.31866 252.29764 114.95732 251.81798 114.95732 251.70155 C 114.95732 251.585 114.87962 251.50606 114.78472 251.52636 C 113.9999 251.69374 112.23695 250.40064 112.5585 249.89339 C 112.6275 249.78455 112.52219 249.69547 112.32493 249.69547 C 112.12768 249.69547 111.77505 249.51861 111.541 249.30273 C 110.47912 248.3232 110.12609 248.11412 110.12609 248.46402 C 110.12609 248.64785 110.0114 248.79836 109.87133 248.79836 C 109.73127 248.79836 109.67821 248.64152 109.75351 248.45007 C 109.82878 248.25864 109.79545 248.15931 109.67909 248.22941 C 109.56276 248.29952 109.39887 248.24849 109.31477 248.11572 C 109.21577 247.95956 109.04178 248.01742 108.82178 248.28005 C 108.63479 248.50323 108.53759 248.57487 108.60629 248.4387 C 108.74859 248.15659 107.67019 247.60542 107.35159 247.79739 C 107.16924 247.90727 106.36137 246.85608 106.13822 246.21868 C 106.08629 246.07052 105.95005 246.07232 105.73515 246.22384 C 105.55641 246.34977 105.06155 246.44795 104.63547 246.44295 C 103.98173 246.43463 103.8017 246.31169 103.48412 245.65592 C 103.05473 244.76925 102.52823 244.57483 101.98706 245.10247 C 101.59618 245.48357 101.53787 245.40939 101.60207 244.61412 C 101.62354 244.34833 101.53142 244.06489 101.39743 243.98419 C 101.26343 243.90344 101.15403 243.99495 101.15403 244.18728 C 101.15403 244.37961 100.99265 244.53661 100.7954 244.53661 C 100.5981 244.53661 100.49626 244.44264 100.56906 244.32784 C 100.64186 244.21299 100.58025 244.046 100.43211 243.9568 C 100.28386 243.86766 100.21732 243.88609 100.28432 243.99762 C 100.35132 244.1092 100.32309 244.40202 100.22127 244.64875 C 100.07061 245.01388 100.03293 244.9593 100.01973 244.35522 C 100.01027 243.92075 99.908419 243.67044 99.773755 243.75164 C 99.647226 243.82789 99.54056 243.70765 99.53656 243.48448 C 99.529619 243.09963 99.513278 243.09924 99.223401 243.47156 C 99.055317 243.68745 98.773955 243.85631 98.598116 243.84621 C 98.364556 243.83332 98.35601 243.79817 98.566077 243.71547 C 99.159274 243.48198 98.826812 243.21184 98.220878 243.43487 C 97.711766 243.62217 97.644262 243.61269 97.87568 243.38474 C 98.033842 243.22895 98.15533 242.94499 98.145431 242.75377 C 98.135245 242.55904 98.079493 242.51949 98.018823 242.66385 C 97.894864 242.95884 96.55328 242.40631 96.55328 242.06027 C 96.55328 241.94977 96.371626 241.92283 96.150203 242.00033 C 95.928748 242.07769 95.824386 242.05827 95.918176 241.95744 C 96.01198 241.8566 96.001005 241.66426 95.893372 241.52956 C 95.785746 241.39484 95.631824 240.94557 95.551274 240.53169 C 95.397418 239.74127 94.569346 238.71506 94.080046 238.70906 C 93.921896 238.70694 93.808808 238.78089 93.828898 238.87339 C 93.90473 239.22269 93.504711 239.81789 93.283712 239.68471 C 93.135913 239.59559 93.133521 239.49566 93.276994 239.40566 C 93.399977 239.32856 93.577915 239.02337 93.672835 238.72714 C 93.817336 238.27616 93.781167 238.21263 93.44856 238.33699 C 93.172129 238.44044 93.087394 238.39393 93.170024 238.18403 C 93.324917 237.79001 92.628851 237.78803 92.225895 238.18092 C 91.869101 238.52882 91.398118 238.5859 91.607328 238.25586 C 91.685526 238.1325 91.588061 238.03158 91.390804 238.03158 C 91.193546 238.03158 91.03217 238.12581 91.03217 238.24087 C 91.03217 238.35593 90.729506 238.44166 90.359859 238.43156 C 89.729738 238.41409 88.963945 238.8922 88.959945 239.3054 C 88.958959 239.40674 88.700117 239.60619 88.384786 239.74879 C 87.733805 240.04318 87.601059 239.7538 88.213737 239.37568 C 88.488602 239.20582 88.507205 239.15384 88.271615 239.21084 C 88.081824 239.25683 87.82365 239.51627 87.698006 239.78754 C 87.572358 240.05885 87.340937 240.23288 87.183826 240.17408 C 87.026717 240.11531 86.781729 240.27859 86.639673 240.53737 C 86.432862 240.91415 86.341334 240.94633 86.179753 240.69757 C 86.037173 240.47806 85.977097 240.57934 85.974597 241.04277 L 85.97098 241.69854 L 86.547689 241.17041 C 87.113231 240.65235 87.131315 240.6501 87.468563 241.0748 C 87.703126 241.37032 87.772081 241.39498 87.686121 241.1518 C 87.61679 240.95568 87.720017 240.66564 87.915564 240.5074 C 88.111113 240.34921 88.271098 240.29833 88.271098 240.39423 C 88.271098 240.49015 88.468802 240.39392 88.710347 240.1808 C 89.245929 239.70821 91.817122 239.48491 91.643502 239.92604 C 91.584256 240.07652 91.671626 240.19992 91.837288 240.19992 C 92.002951 240.19992 92.084996 240.06404 92.019706 239.89813 C 91.939456 239.69432 92.02077 239.64155 92.27137 239.73535 C 92.475249 239.81164 92.642407 239.94549 92.642407 240.03249 C 92.642407 240.27869 91.318781 241.17196 90.954138 241.17196 C 90.52202 241.17196 90.032836 241.76344 90.220333 242.05924 C 90.301955 242.18801 90.203255 242.29333 90.000708 242.29333 C 89.46556 242.29333 88.6494 243.10365 88.856075 243.4297 C 88.974636 243.61674 89.135245 243.50607 89.364571 243.07933 C 89.625238 242.59427 89.74468 242.52447 89.902006 242.76669 C 90.013332 242.93819 90.113365 242.97751 90.124215 242.85402 C 90.135045 242.73066 90.228931 242.83158 90.332987 243.0783 L 90.52264 243.52737 L 90.698857 243.0783 C 90.905891 242.55224 91.72205 241.72746 91.72205 242.04425 C 91.72205 242.16361 91.592888 242.3949 91.434729 242.55792 C 91.276568 242.72094 90.999836 243.13178 90.820296 243.47104 C 90.640756 243.81029 90.401679 244.08806 90.289062 244.08806 C 90.176443 244.08806 90.148334 243.98714 90.226534 243.86378 C 90.304726 243.74044 90.280618 243.63951 90.172791 243.63951 C 90.064961 243.63951 89.877856 243.96721 89.756795 244.36814 C 89.635734 244.76907 89.425467 245.0973 89.28964 245.0973 C 88.946517 245.0973 87.12078 246.8725 87.12078 247.20621 C 87.12078 247.35555 87.038262 247.42928 86.937329 247.36848 C 86.836393 247.30768 86.603796 247.35027 86.420048 247.46356 C 86.142912 247.63447 86.1543 247.67037 86.488261 247.67337 C 86.709684 247.67524 86.89082 247.77458 86.89082 247.89403 C 86.89082 248.01363 86.735928 248.05339 86.546139 247.98239 C 86.327625 247.90062 86.20094 247.98517 86.20094 248.21339 C 86.20094 248.63393 85.749356 248.70939 85.722416 248.29349 C 85.711232 248.12077 85.653117 248.14264 85.570487 248.34981 C 85.424835 248.71502 84.818435 249.22838 84.519389 249.23968 C 84.417019 249.2436 84.388023 249.16056 84.454793 249.0552 C 84.521555 248.94987 84.317175 248.74885 84.000557 248.60819 C 83.532672 248.4004 83.400302 248.4149 83.293107 248.68726 C 83.063631 249.27031 82.735303 249.04922 82.875045 248.40562 C 82.986662 247.89152 82.966458 247.8542 82.753088 248.18135 C 82.612288 248.39723 82.316191 248.57409 82.094731 248.57409 C 81.873269 248.57409 81.569559 248.69321 81.419836 248.83919 C 80.951152 249.29615 80.881942 248.89382 81.331986 248.32811 C 81.760859 247.78901 81.926357 246.91954 81.557812 247.14162 C 81.450313 247.20639 81.414104 247.34153 81.477714 247.44186 C 81.541317 247.5422 81.407811 247.86294 81.180575 248.15499 C 80.953337 248.44707 80.753127 248.92095 80.736157 249.20816 C 80.706434 249.71107 80.72643 249.71723 81.266874 249.37197 C 81.978873 248.91712 83.147791 249.11634 82.719499 249.6195 C 82.569301 249.79584 82.316306 249.89139 82.157259 249.83189 C 81.99821 249.77238 81.811034 249.8691 81.741264 250.04635 C 81.671499 250.22361 81.496694 250.36829 81.352657 250.36829 C 81.204366 250.36829 81.153292 250.20885 81.235352 250.00036 C 81.35651 249.69251 81.323128 249.67857 81.030196 249.91561 C 80.837508 250.07153 80.67983 250.42214 80.67983 250.69489 C 80.67983 250.98379 80.53716 251.19098 80.338249 251.19098 C 80.10958 251.19098 80.068527 251.10679 80.213708 250.93622 C 80.480271 250.62308 80.250343 249.6507 79.952226 249.83034 C 79.825326 249.90681 79.847523 250.08956 80.006486 250.27631 C 80.200094 250.50378 80.203502 250.59257 80.017855 250.59257 C 79.875837 250.59257 79.746354 250.49178 79.730534 250.36829 C 79.714714 250.24492 79.688993 250.05138 79.673173 249.93835 C 79.598981 249.40788 79.328437 249.51568 79.094914 250.16882 C 78.953186 250.56522 78.88948 250.94068 78.95332 251.00288 C 79.017154 251.06512 79.069076 250.99849 79.069076 250.85457 C 79.069076 250.71071 79.190759 250.59257 79.339343 250.59257 C 79.487925 250.59257 79.366239 250.84487 79.069076 251.15326 C 78.39376 251.85414 77.785359 251.92833 78.149235 251.2654 C 78.284665 251.01867 78.337677 250.81685 78.267057 250.81685 C 78.196424 250.81685 78.309909 250.5617 78.519755 250.24944 C 78.729607 249.93719 78.848542 249.62989 78.783822 249.56679 C 78.719104 249.50368 78.448975 249.78433 78.183341 250.19053 C 77.069063 251.89449 76.602138 252.4452 75.654814 253.17277 C 75.105331 253.5948 74.457971 254.00128 74.216659 254.07608 C 73.723997 254.22852 73.637123 254.54659 74.051294 254.68121 C 74.227117 254.73834 74.145217 254.94522 73.821334 255.26102 C 73.544555 255.53086 73.318005 255.89052 73.318005 256.06045 C 73.318005 256.23039 73.162598 256.49497 72.972807 256.64853 C 72.715664 256.85658 72.627608 256.86048 72.627608 256.663 C 72.627608 256.51722 72.508585 256.4701 72.362508 256.5581 C 72.196628 256.65805 72.159321 256.61928 72.263289 256.45526 C 72.354846 256.31041 72.525847 256.25094 72.643628 256.32194 C 72.87104 256.45895 72.923994 256.23968 72.903044 255.24655 C 72.895885 254.90729 72.986348 254.63005 73.104065 254.63005 C 73.221777 254.63005 73.292274 254.7055 73.260645 254.798 C 73.229013 254.89042 73.305055 254.96646 73.429626 254.96646 C 73.554194 254.96646 73.684915 254.53036 73.720565 253.99753 C 73.761587 253.38439 73.699553 253.08047 73.551583 253.16967 C 73.42299 253.24714 73.318005 253.45932 73.318005 253.64096 C 73.318005 253.82258 73.162598 254.02927 72.972807 254.10037 C 72.783017 254.17136 72.627608 254.35927 72.627608 254.51791 C 72.627608 254.67657 72.460967 254.86836 72.257088 254.94476 C 71.991829 255.04401 71.924433 254.98732 72.019893 254.74477 C 72.093284 254.55831 72.053051 254.40577 71.930493 254.40577 C 71.807939 254.40577 71.707768 254.55122 71.707768 254.72927 C 71.707768 255.13319 70.792825 255.7811 70.484587 255.59537 C 70.352107 255.51553 70.329366 255.57303 70.430326 255.73231 C 70.525936 255.88234 70.748646 255.9524 70.925387 255.8863 C 71.106852 255.8184 71.403574 255.99908 71.606999 256.30178 C 71.939249 256.79618 71.931143 256.90463 71.502612 257.69653 C 70.952039 258.71395 70.877736 258.54379 71.360502 257.37045 L 71.703634 256.53639 L 71.1724 257.16219 C 70.815556 257.58226 70.513951 257.73999 70.25411 257.64279 C 69.96818 257.53581 69.867053 257.61914 69.867053 257.96318 C 69.867053 258.3118 69.966862 258.39162 70.263928 258.28047 C 70.58462 258.16049 70.561866 258.25439 70.145589 258.77037 C 69.570696 259.48296 69.637969 259.79368 70.264445 259.3202 C 70.654132 259.02571 70.654468 259.03223 70.270129 259.47368 C 69.805103 260.00779 69.732094 261.26 70.154891 261.45237 C 70.38494 261.55704 70.38494 261.60925 70.154891 261.71385 C 69.996732 261.78581 69.86757 262.03376 69.86757 262.26473 C 69.86757 262.65432 69.930461 262.66326 70.743486 262.38358 C 71.772839 262.02949 76.041977 259.95918 78.07172 258.82979 C 81.659145 256.8337 85.742583 253.3218 88.86486 249.54767 C 89.799524 248.41787 91.10947 247.02387 91.775793 246.44967 C 92.974827 245.41645 95.362827 244.08806 96.021012 244.08806 C 96.208449 244.08806 96.930287 244.61759 97.625049 245.26525 C 98.319812 245.91293 99.165031 246.58182 99.503487 246.75146 C 99.841942 246.92111 100.27436 247.18918 100.46415 247.34729 C 100.97009 247.76884 102.71172 248.20784 104.02983 248.24594 C 105.95477 248.3015 109.09597 249.16436 110.81597 250.10991 C 111.38534 250.4229 112.45541 251.12598 113.19361 251.67261 C 114.31354 252.50183 114.50834 252.74588 114.37028 253.14384 C 114.27926 253.40619 114.15815 254.13893 114.10105 254.77216 C 114.01008 255.78206 114.06264 255.9677 114.52841 256.28576 C 115.26573 256.7893 115.76336 256.73931 116.17999 256.11936 C 116.81889 255.16861 117.29787 254.80376 117.56492 255.06413 C 118.1808 255.66461 120.42547 254.95575 120.14719 254.24868 C 120.07905 254.07536 120.11494 253.98914 120.22677 254.05644 C 120.46811 254.20189 120.70857 253.6663 120.70788 252.98519 C 120.70762 252.71771 120.30863 251.74207 119.82163 250.81685 C 119.33464 249.89161 118.92759 248.8002 118.91729 248.39115 C 118.90668 247.98211 118.82662 247.32565 118.73952 246.93285 L 118.58088 246.21868 L 119.58702 247.22792 C 120.14035 247.78306 120.83273 248.38905 121.12542 248.57409 C 121.41812 248.75914 121.91764 249.41506 122.23543 250.03188 C 122.55321 250.6487 122.99972 251.35508 123.22762 251.60181 C 123.45551 251.84855 123.76854 252.57963 123.92319 253.22652 C 124.11967 254.04837 124.41076 254.5721 124.88953 254.96491 C 125.60598 255.55269 126.64808 255.70235 127.08165 255.27962 C 127.25427 255.1114 127.46563 255.10317 127.74259 255.2543 C 128.24066 255.52606 129.3552 255.19425 129.54248 254.71842 C 129.61365 254.53759 129.46715 253.86357 129.2164 253.22032 C 128.96563 252.57708 128.76016 251.7625 128.7601 251.41061 C 128.76003 251.05871 128.4639 249.89823 128.10174 248.83144 C 127.73959 247.76466 127.37215 246.60208 127.28525 246.24813 C 127.13 245.61569 127.14814 245.62221 128.34617 246.63467 C 129.01663 247.20129 129.96008 248.06023 130.44268 248.54308 C 131.99867 250.09987 134.28121 250.06546 134.28121 248.48521 C 134.28121 247.97295 133.32277 246.89175 133.07922 247.12922 C 133.00638 247.20024 132.86879 247.13463 132.77329 246.984 C 132.66247 246.80901 132.69556 246.76811 132.86528 246.87032 C 133.26431 247.11078 133.18492 246.65381 132.76916 246.31738 C 132.57013 246.15632 132.21462 245.6561 131.97902 245.20582 C 131.74341 244.75553 130.82891 243.57206 129.94711 242.57549 C 129.06531 241.57892 128.27611 240.55512 128.19321 240.30069 C 127.97396 239.62716 126.95188 238.99984 125.64608 238.73748 C 124.5225 238.51174 120.04386 237.01596 118.81497 236.45597 C 118.46945 236.29851 118.13088 235.99887 118.06308 235.79037 C 117.99521 235.58188 117.70756 235.19858 117.42332 234.93823 C 116.95843 234.51239 115.68733 233.90135 115.3542 233.88765 z M 168.32874 236.55622 C 167.88128 236.55173 166.81616 236.84493 165.45295 237.36392 C 164.56726 237.70111 163.50137 238.049 163.0841 238.137 C 162.47676 238.26497 162.37724 238.35795 162.58594 238.60312 C 162.75603 238.803 162.97942 238.84283 163.22931 238.71784 C 164.58679 238.03892 167.05079 237.09026 167.74118 236.981 C 168.19061 236.90989 168.5587 236.76677 168.5587 236.66267 C 168.5587 236.59231 168.4779 236.55771 168.32874 236.55622 z M 81.77227 236.77946 C 81.673883 236.68354 79.214705 237.42797 78.263957 237.84141 C 77.927017 237.98806 78.052407 238.01761 78.731628 237.95251 C 79.652444 237.8642 81.968386 236.97066 81.77227 236.77946 z M 187.08109 236.79393 C 186.79627 236.80346 186.50231 236.94728 186.50231 237.15876 C 186.50231 237.26895 186.60588 237.35927 186.73227 237.35927 C 186.85878 237.35927 186.96275 237.26181 186.96275 237.14223 C 186.96275 237.02263 187.14388 236.98665 187.36531 237.06265 C 187.66571 237.16572 187.70465 237.13354 187.51879 236.93604 C 187.41976 236.83084 187.25198 236.78821 187.08109 236.79393 z M 76.648035 238.48065 C 76.518443 238.48064 75.595386 238.93485 74.59648 239.48989 C 73.597574 240.04491 72.124852 240.81009 71.323812 241.19056 C 70.522772 241.57105 69.86757 241.97181 69.86757 242.08094 C 69.86757 242.33306 70.553511 242.10075 71.060779 241.67684 C 71.274228 241.49887 71.558799 241.419 71.693298 241.5001 C 71.827795 241.58109 71.937728 241.54487 71.937728 241.41949 C 71.937728 241.29413 73.050796 240.58157 74.410962 239.83612 C 75.771128 239.09065 76.777626 238.48067 76.648035 238.48065 z M 172.94293 238.48065 C 172.80891 238.48065 172.69954 238.58156 172.69954 238.70492 C 172.69954 238.82826 172.74502 238.9292 172.80082 238.9292 C 172.8566 238.9292 172.96653 238.8284 173.04473 238.70492 C 173.1229 238.58157 173.07693 238.48065 172.94293 238.48065 z M 161.87384 238.48582 C 161.67661 238.48295 160.90009 238.84676 160.14836 239.29403 C 159.03177 239.95843 158.40233 240.15621 156.71085 240.37562 C 155.5721 240.52335 154.27841 240.80802 153.83557 241.00814 C 152.68917 241.52618 150.60759 241.8453 148.37337 241.8453 C 147.14074 241.8453 146.50026 241.92635 146.59002 242.07061 C 146.81075 242.41884 153.16992 242.09931 153.61388 241.71766 C 154.28616 241.13973 155.58278 240.75765 157.12116 240.68465 C 157.97065 240.64434 158.66555 240.55791 158.66577 240.49241 C 158.66604 240.42695 158.95137 240.24833 159.29932 240.09554 C 160.51972 239.55964 162.22883 238.49082 161.87384 238.48582 z M 91.045605 239.15347 C 91.179592 239.15347 91.225091 239.25439 91.146891 239.37775 C 91.068692 239.50108 90.959285 239.60203 90.903495 239.60203 C 90.847708 239.60203 90.801693 239.50111 90.801693 239.37775 C 90.801693 239.2544 90.911611 239.15347 91.045605 239.15347 z M 172.82821 239.15347 C 172.77241 239.15347 172.6625 239.25439 172.5843 239.37775 C 172.50613 239.50109 172.5521 239.60203 172.6861 239.60203 C 172.82012 239.60203 172.9295 239.50123 172.9295 239.37775 C 172.9295 239.2544 172.88401 239.15347 172.82821 239.15347 z M 177.94004 239.54725 C 177.87629 239.55303 177.81713 239.56895 177.76434 239.59583 C 176.98993 239.99022 174.32119 241.17196 174.20487 241.17196 C 174.13615 241.17196 174.07981 241.02238 174.07981 240.83968 C 174.07981 240.65698 173.82217 240.44465 173.50672 240.36735 C 173.19126 240.29016 172.99002 240.13695 173.05972 240.02681 C 173.12958 239.91653 173.02547 239.8263 172.82821 239.8263 C 172.37001 239.8263 172.37552 239.87318 172.94242 240.85725 C 173.33838 241.54462 173.3804 241.83492 173.20235 242.64887 C 173.08574 243.18307 173.02897 243.85117 173.07677 244.13405 C 173.12708 244.43171 172.9622 244.87997 172.68558 245.19755 C 172.28576 245.65657 172.16923 245.69323 171.97348 245.42183 C 171.793 245.17147 171.76558 245.21226 171.85308 245.60166 C 171.92936 245.94104 171.85899 246.10654 171.6381 246.10654 C 171.45745 246.10654 171.19215 246.35824 171.04847 246.66568 C 170.85548 247.07874 170.71178 247.16369 170.49864 246.99124 C 170.29862 246.82864 170.16436 246.8292 170.06094 246.99227 C 169.97896 247.1216 169.77188 247.2274 169.6005 247.2274 C 169.37299 247.2274 169.3342 247.06085 169.45736 246.61142 C 169.6244 246.00243 169.30438 244.75985 168.98038 244.75985 C 168.88812 244.75985 168.91483 245.04561 169.03981 245.39495 C 169.25209 245.98872 169.00729 247.2274 168.67756 247.2274 C 168.61006 247.2274 168.25484 246.9669 167.88846 246.64862 C 167.17065 246.02502 166.85589 245.29111 167.21357 245.07559 C 167.33558 245.00208 167.05186 244.74151 166.58363 244.49682 C 165.90111 244.14016 165.69523 244.11086 165.54493 244.34799 C 165.4351 244.52125 165.49573 244.84938 165.69118 245.14019 C 166.05893 245.68744 165.87676 246.47369 165.26847 246.96592 C 164.93454 247.23612 163.38895 247.52962 162.49137 247.49302 C 162.02196 247.47388 161.73514 247.70842 161.16432 248.57977 C 160.9598 248.89198 160.30534 249.39183 159.71015 249.6903 C 159.11495 249.98878 158.4817 250.43714 158.30248 250.68662 C 158.12326 250.93663 157.9764 251.05384 157.9764 250.9481 C 157.9764 250.84233 157.75564 251.02884 157.48599 251.36307 C 157.21631 251.69732 156.74022 252.06582 156.42766 252.18162 C 156.05298 252.32052 155.90466 252.50852 155.99306 252.73301 C 156.08253 252.96032 155.92715 253.14769 155.52487 253.2968 C 154.85058 253.54675 154.53804 253.40626 154.92646 253.02756 C 155.11298 252.84568 155.03181 252.62164 154.62364 252.19247 C 154.31685 251.86986 154.06553 251.38347 154.06553 251.11192 C 154.06553 250.54763 153.71315 250.24079 153.48262 250.60446 C 153.39745 250.73884 153.59636 251.35428 153.92497 251.97181 C 154.37472 252.81688 154.46657 253.19641 154.29601 253.50712 C 154.13496 253.8005 154.15186 253.95064 154.35492 254.02544 C 154.73066 254.1638 153.0817 254.85659 152.40517 254.84399 C 151.92491 254.83546 151.95421 254.77065 152.7514 254.08383 L 153.62318 253.33297 L 153.16274 252.15165 C 152.90955 251.50195 152.7592 250.88103 152.8284 250.77189 C 153.03283 250.44936 154.71871 249.47016 155.0696 249.47016 C 155.24735 249.47016 155.56829 249.73136 155.78274 250.05048 C 155.99718 250.36959 156.23391 250.571 156.30881 250.498 C 156.38355 250.42513 156.20248 250.11401 155.90625 249.80657 C 155.61002 249.49914 155.41121 249.21218 155.46441 249.16888 C 155.51763 249.1256 156.10446 248.80679 156.76873 248.45988 C 157.43298 248.11296 157.9764 247.74402 157.9764 247.6403 C 157.9764 247.53665 158.12608 247.45168 158.30868 247.45168 C 158.71084 247.45168 159.38967 246.56316 159.20734 246.27552 C 159.13564 246.16238 159.30387 245.91474 159.58147 245.72517 C 159.85907 245.5356 160.30581 244.91287 160.57418 244.34127 C 160.84255 243.76968 161.10102 243.22629 161.14882 243.13359 C 161.19652 243.04099 161.04596 243.03484 160.81396 243.11964 C 160.4436 243.25511 160.43007 243.22807 160.70544 242.89795 C 160.87794 242.69119 161.11104 242.57723 161.22323 242.64473 C 161.33542 242.71233 161.42736 242.5425 161.42736 242.26698 L 161.42736 241.76572 L 160.8522 242.29282 C 160.53589 242.58256 160.27704 242.95352 160.27704 243.11706 C 160.27704 243.28061 160.14736 243.41681 159.9892 243.41781 C 159.79739 243.42009 159.81649 243.49353 160.04656 243.63847 C 160.34828 243.82854 160.34548 243.85513 160.02434 243.85913 C 159.82237 243.86101 159.33075 244.0217 158.9319 244.2157 C 158.27179 244.53782 158.17431 244.53761 157.84308 244.21466 C 157.64293 244.0195 157.38372 243.91719 157.2674 243.98729 C 157.15098 244.05735 157.05605 244.0017 157.05605 243.86378 C 157.05605 243.72596 156.95157 243.67578 156.82402 243.75268 C 156.68033 243.83928 156.72424 244.02104 156.93926 244.23068 C 157.13002 244.41667 157.28601 244.71281 157.28601 244.88904 C 157.28601 245.06528 157.41194 245.20944 157.56558 245.20944 C 157.74742 245.20944 157.71583 245.33544 157.47566 245.56962 C 156.95481 246.07744 155.72576 245.78627 155.39413 245.07663 C 155.25541 244.77976 155.05493 244.53661 154.94868 244.53661 C 154.67041 244.53661 154.70141 244.64612 155.22618 245.51329 L 155.69696 246.29102 L 154.99726 246.44089 C 154.19609 246.61244 152.68809 246.20099 152.68009 245.80888 C 152.67726 245.66425 152.4824 245.30175 152.24704 245.00325 L 151.81916 244.46064 L 150.92929 244.87561 C 150.38244 245.13077 149.68514 245.26194 149.11958 245.21564 C 148.61346 245.17414 147.99236 245.13537 147.7393 245.13037 C 147.48626 245.12502 147.1529 244.96425 146.99878 244.77277 C 146.75259 244.46701 146.71684 244.47905 146.70784 244.87302 C 146.69972 245.20908 146.64737 245.24585 146.5001 245.01927 C 146.23876 244.61721 145.42258 244.79482 145.49758 245.23734 C 145.61752 245.94466 143.45771 246.26109 141.86783 245.76909 C 141.52944 245.66437 141.28377 245.74483 141.06994 246.03057 C 140.72014 246.49805 137.62706 247.02982 136.86245 246.75404 C 135.94486 246.42309 136.07882 245.20944 137.03298 245.20944 C 137.25031 245.20944 137.98819 244.9086 138.67267 244.54074 C 139.35714 244.17288 140.22786 243.86985 140.60744 243.86585 C 140.98701 243.8624 141.86698 243.59537 142.56287 243.2726 C 143.25878 242.94982 144.39757 242.49739 145.09347 242.26698 L 146.35903 241.84788 L 145.36942 241.96312 C 144.82533 242.02651 143.84192 242.37313 143.18403 242.73362 C 142.50223 243.10719 141.44387 243.45549 140.72268 243.54339 C 140.02679 243.62819 139.30223 243.82058 139.11244 243.97127 C 138.92266 244.12197 138.1816 244.47687 137.46603 244.75985 C 136.61273 245.0973 136.07617 245.46433 135.90695 245.82645 C 135.6761 246.32044 135.73632 246.45904 136.47694 247.14007 C 137.21271 247.81664 137.44622 247.90126 138.57862 247.90126 C 139.27931 247.90126 140.69514 247.70538 141.7252 247.46615 C 142.75524 247.2269 144.27105 246.91663 145.09347 246.77678 C 145.91589 246.63695 146.8506 246.39739 147.17035 246.24451 C 147.64302 246.01846 147.90106 246.02703 148.55062 246.28999 C 148.99004 246.46788 150.12065 246.64753 151.06313 246.68893 C 152.66269 246.75924 152.82935 246.81532 153.56685 247.53436 L 154.35699 248.30485 L 153.68984 249.27275 C 153.24718 249.91539 152.48335 250.55058 151.4166 251.16256 C 149.36633 252.33876 149.01737 252.88301 149.57692 254.03267 C 149.80136 254.49381 150.25587 255.01028 150.58719 255.1804 C 151.17217 255.4808 151.19031 255.55338 151.21041 257.6955 C 151.23118 259.90123 151.87377 263.00235 152.57363 264.27494 C 152.98629 265.02529 153.95139 265.13016 154.63966 264.49973 C 155.00132 264.16845 155.19612 264.10456 155.26132 264.29561 C 155.4103 264.73141 156.77825 264.62154 157.46739 264.11836 C 158.03969 263.70047 158.09423 263.52627 158.12833 262.00634 C 158.15744 260.70468 158.2929 260.11329 158.76085 259.24631 C 159.08842 258.63942 159.35992 257.88206 159.36392 257.56372 C 159.3692 257.1582 159.68907 256.72054 160.43207 256.10076 L 161.49247 255.21606 L 161.3085 256.32504 C 161.10022 257.58038 161.09963 257.72001 161.293 259.11608 C 161.51008 260.68338 161.6538 261.16318 161.86764 261.03431 C 161.97601 260.96899 161.92273 260.18952 161.7493 259.30212 C 161.57586 258.41472 161.45812 257.6654 161.48782 257.6371 C 161.51751 257.60875 161.84971 257.64318 162.22576 257.71358 C 162.82496 257.82578 162.85332 257.86283 162.45572 258.01434 C 162.0308 258.17616 162.0294 258.18826 162.43298 258.20296 C 162.73922 258.21417 162.80103 258.29973 162.6464 258.49906 C 162.37761 258.84551 162.30575 259.84068 162.56062 259.68711 C 162.82475 259.52795 163.57121 260.38866 163.4014 260.65656 C 163.32365 260.77918 163.35988 260.93952 163.48201 261.01312 C 163.611 261.09085 163.49631 261.49069 163.20864 261.96604 L 162.71307 262.78511 L 162.52341 262.07197 C 162.41918 261.67972 162.22268 261.35884 162.08623 261.35884 C 161.94978 261.35884 161.90091 261.51874 161.97771 261.71385 C 162.05445 261.90898 162.11724 262.25879 162.11724 262.49107 C 162.11724 263.17622 162.91323 263.45168 163.71869 263.04556 C 164.62651 262.58785 164.95386 261.93876 164.78012 260.94078 C 164.48006 259.21731 164.65683 258.05704 165.37078 257.06246 C 165.60584 256.73501 165.79815 256.2678 165.79815 256.02376 C 165.79815 255.63394 166.01443 255.56001 167.57892 255.41708 C 169.28179 255.2615 171.31926 254.576 171.31926 254.15876 C 171.31926 254.0502 172.01808 253.65306 172.87214 253.27613 C 173.72618 252.8992 174.83874 252.20711 175.34485 251.73824 C 175.85097 251.26938 176.66013 250.65617 177.14268 250.37553 C 177.62523 250.09486 178.28605 249.4488 178.61132 248.93944 C 179.37613 247.74174 179.271 247.82465 180.12492 247.74055 C 181.51606 247.60357 182.84222 247.66058 184.27041 247.91831 C 188.16247 248.6207 190.40564 248.76796 195.70433 248.66866 C 198.67772 248.61291 202.00678 248.49312 203.10181 248.40252 C 204.19685 248.31182 205.04982 248.30472 204.99782 248.38702 L 203.69713 244.70146 C 203.22671 245.11652 202.58167 245.21791 202.35199 244.91281 C 202.27549 244.81117 202.05037 244.8866 201.85125 245.08076 C 201.38186 245.53843 201.1892 245.52841 201.2735 245.05027 C 201.36347 244.53949 199.74234 244.22975 199.35579 244.68389 C 199.21466 244.84966 198.90502 244.98516 198.66746 244.98516 C 197.9424 244.98516 198.18703 245.36412 198.92533 245.38462 C 199.3049 245.39513 199.61572 245.31283 199.61572 245.20168 C 199.61572 245.09058 199.7881 245.06397 199.99865 245.14277 C 200.25602 245.23905 200.32697 245.19986 200.21517 245.0234 C 200.12356 244.87907 200.15221 244.7614 200.27873 244.7614 C 200.62631 244.7614 200.75847 245.0825 200.54797 245.41459 C 200.44489 245.57719 199.91579 245.73981 199.37233 245.77581 C 198.70176 245.82018 198.2683 245.98915 198.02254 246.30188 C 197.73869 246.66307 197.35559 246.77557 196.2521 246.82277 C 195.32623 246.86234 194.71582 246.77939 194.46927 246.5799 C 194.18344 246.34876 194.09461 246.34273 194.09461 246.55561 C 194.09461 246.77839 194.02472 246.77839 193.74941 246.55561 C 193.33255 246.21829 193.28794 246.56447 193.69205 247.00054 C 193.8706 247.19328 193.74291 247.1678 193.35512 246.93336 C 192.55543 246.45011 192.34459 246.454 192.74327 246.94473 C 193.02386 247.29006 192.98472 247.28705 192.39084 246.91683 C 191.76669 246.52781 191.73312 246.52621 191.87873 246.89615 C 192.01535 247.24326 191.98743 247.25409 191.65238 246.98297 C 191.44208 246.81285 191.01708 246.70586 190.70826 246.74526 C 190.36634 246.78894 190.02218 246.65648 189.82769 246.40626 C 189.46269 245.93682 189.39211 245.57111 189.70263 245.75824 C 189.99991 245.93738 190.66622 245.65201 190.51344 245.41097 C 190.44344 245.30056 190.0365 245.21047 189.60858 245.21047 C 189.18069 245.21047 188.76351 245.10418 188.68151 244.97483 C 188.57807 244.81099 188.44082 244.81323 188.23347 244.98103 C 188.01073 245.16126 187.75874 245.07848 187.24438 244.6565 C 186.66722 244.18294 186.55943 244.15451 186.58603 244.48183 C 186.60596 244.72739 186.48939 244.84057 186.27287 244.78517 C 186.08307 244.73672 185.72029 244.68623 185.46723 244.67303 C 184.71752 244.63395 184.56583 244.12417 185.16337 243.65243 C 185.5215 243.36967 185.74714 243.31213 185.8517 243.47724 C 185.96224 243.65157 186.10692 243.64229 186.34987 243.44572 C 186.53803 243.29342 186.74477 243.25229 186.80927 243.35425 C 186.97737 243.61932 189.10385 243.54495 189.19775 243.27054 C 189.24085 243.14452 188.96376 243.04109 188.58229 243.04109 C 188.20084 243.04109 187.67762 242.8548 187.41905 242.62665 C 186.83794 242.11389 184.69368 241.90213 185.11687 242.39927 C 185.32787 242.64715 185.28546 242.68309 184.89983 242.58479 C 184.63649 242.51764 184.22742 242.22277 183.99084 241.92953 C 183.75426 241.63629 183.48201 241.39623 183.38571 241.39623 C 183.28942 241.39623 183.39802 241.59805 183.62703 241.84478 C 183.85601 242.0915 183.93141 242.29333 183.79447 242.29333 C 183.6575 242.29333 183.34204 242.04106 183.09322 241.73265 C 182.8444 241.42424 182.48074 241.17196 182.285 241.17196 C 182.08925 241.17196 181.86504 241.07116 181.78684 240.94768 C 181.70864 240.82434 181.38059 240.7234 181.0582 240.7234 C 180.63165 240.7234 180.50818 240.81501 180.60448 241.05982 C 180.69456 241.28864 180.59212 241.39623 180.28409 241.39623 C 180.03499 241.39623 179.8314 241.54477 179.8314 241.72593 C 179.8314 241.91063 179.69477 242.00403 179.52031 241.93883 C 179.34919 241.87481 178.70183 242.12859 178.08215 242.50262 C 177.32103 242.96196 176.78833 243.13904 176.44039 243.04884 C 176.15713 242.97543 175.98259 242.82582 176.05179 242.71656 C 176.12109 242.60727 176.06794 242.51761 175.93396 242.51761 C 175.66951 242.51761 175.60964 241.86231 175.82441 241.31665 C 175.89815 241.12929 176.10552 241.03106 176.28485 241.09806 C 176.48579 241.17324 176.61093 241.07672 176.61093 240.84639 C 176.61093 240.64097 176.71424 240.53497 176.84089 240.61127 C 176.96742 240.6875 177.07346 240.56728 177.07446 240.3441 C 177.07714 240.03623 177.1248 240.01068 177.27238 240.23765 C 177.42854 240.47792 177.4948 240.46579 177.6088 240.17615 C 177.71323 239.91086 177.91959 239.85352 178.38859 239.95963 C 178.99868 240.09768 179.00653 240.08903 178.56946 239.76119 C 178.36179 239.6053 178.13129 239.52989 177.94004 239.54725 z M 182.43641 239.68574 C 182.39027 239.69801 182.36148 239.73611 182.36148 239.79685 C 182.36148 239.91845 182.18033 240.06394 181.95892 240.12034 C 181.67377 240.19308 181.65705 240.22991 181.90156 240.24591 C 182.42343 240.28008 182.92659 239.91616 182.61624 239.72915 C 182.5462 239.68693 182.48255 239.67347 182.43641 239.68574 z M 84.612406 240.58698 C 84.483587 240.60182 84.333439 240.67933 84.194861 240.82779 C 84.096308 240.93339 84.144706 240.9475 84.302865 240.8588 C 84.496347 240.75023 84.590702 240.86035 84.590702 241.19624 C 84.590702 241.77966 84.794758 241.66055 84.925049 241.00091 C 84.982051 240.71233 84.827106 240.56224 84.612406 240.58698 z M 107.99134 240.85673 C 107.94102 240.85894 107.88011 240.86889 107.80841 240.88722 C 107.56483 240.94933 107.36554 241.0726 107.36554 241.1611 C 107.36554 241.4344 108.02923 241.33777 108.14327 241.04793 C 108.19559 240.91506 108.14229 240.85011 107.99134 240.85673 z M 87.009159 241.29856 C 86.916749 241.31517 86.735348 241.42474 86.470691 241.63394 C 86.176356 241.8666 86.003735 242.16394 86.086735 242.29489 C 86.177972 242.43883 86.422377 242.30348 86.705302 241.95279 C 87.070198 241.50049 87.163176 241.27088 87.009159 241.29856 z M 85.371016 241.39675 C 85.321286 241.39675 85.280583 241.54811 85.280583 241.73316 C 85.280584 241.91821 85.38075 242.06958 85.503308 242.06958 C 85.625868 242.06958 85.666572 241.91821 85.593742 241.73316 C 85.520913 241.54811 85.420746 241.39675 85.371016 241.39675 z M 182.33719 241.62774 C 182.35947 241.60707 182.54522 241.75195 182.88393 242.05717 C 183.3557 242.4823 183.74176 242.86097 183.74176 242.89847 C 183.74176 243.1477 183.07715 242.59407 182.4762 241.84478 C 182.36965 241.71193 182.32382 241.64015 182.33719 241.62774 z M 5.0002116 241.66753 L 5.0002116 292.00038 L 8.5638184 292.00038 L 8.5638184 269.57126 L 14.971696 269.57126 C 17.107671 269.57126 18.88407 270.09802 20.300053 271.15101 C 21.716036 272.18059 23.131872 274.21616 24.547856 277.25813 L 31.423922 292.00038 L 35.455717 292.00038 L 27.787968 275.9595 C 25.843991 271.91135 23.851565 269.48939 21.811589 268.69379 L 21.811589 268.55375 C 25.651544 267.85175 28.639925 266.28373 30.775899 263.85016 C 32.911874 261.41658 33.979838 258.38619 33.979838 254.75924 C 33.979838 250.82808 32.671499 247.66907 30.05553 245.2823 C 27.46356 242.87213 23.887966 241.66753 19.328019 241.66753 L 5.0002116 241.66753 z M 41.326676 241.66753 L 41.326676 292.00038 L 66.634176 292.00038 L 66.634176 288.8414 L 44.890283 288.8414 L 44.890283 268.20235 L 63.970256 268.20235 L 63.970256 265.04388 L 44.890283 265.04388 L 44.890283 244.86114 L 65.446134 244.86114 L 65.446134 241.66753 L 41.326676 241.66753 z M 84.22535 241.95227 C 84.141958 241.96347 84.026832 242.00356 83.900305 242.06958 C 83.647249 242.20161 83.440385 242.40799 83.440385 242.52795 C 83.440385 242.64894 83.645438 242.62113 83.900305 242.46593 C 84.153359 242.31186 84.360742 242.10566 84.360742 242.00756 C 84.360742 241.95853 84.308742 241.94107 84.22535 241.95227 z M 85.511576 242.29385 C 85.497926 242.2868 85.380739 242.38287 85.146741 242.57497 C 84.883141 242.79135 84.667183 243.11908 84.667183 243.30361 C 84.667184 243.48815 84.762049 243.63951 84.878023 243.63951 C 84.994015 243.63951 85.042303 243.51311 84.984993 243.3589 C 84.927696 243.20469 85.048282 242.87647 85.253194 242.62975 C 85.435101 242.41075 85.525226 242.3009 85.511576 242.29385 z M 180.47839 242.52278 C 180.50928 242.5246 180.51828 242.59753 180.52128 242.7424 C 180.52679 243.0051 180.56985 243.01504 180.71765 242.78788 C 180.86855 242.55585 180.96788 242.56791 181.20703 242.84886 C 181.37217 243.04273 181.44026 243.26617 181.35896 243.34547 C 181.27765 243.42473 181.21116 243.36592 181.21116 243.21473 C 181.21116 243.06358 181.1063 243.00338 180.97758 243.08088 C 180.84891 243.15837 180.8035 243.31593 180.8763 243.43073 C 181.05259 243.70885 180.94594 243.68431 180.48046 243.33927 C 180.21579 243.14311 180.16033 242.95124 180.30424 242.72948 C 180.39469 242.59012 180.4475 242.52095 180.47839 242.52278 z M 186.18347 242.52588 C 186.54382 242.50155 186.99362 242.62014 187.19271 242.85402 L 187.19271 242.85454 C 187.42659 243.1292 187.41294 243.19095 187.11933 243.19095 C 186.92152 243.19095 186.69963 243.09579 186.62633 242.98011 C 186.55294 242.86512 186.2853 242.80849 186.03154 242.85609 C 185.77778 242.90372 185.63094 242.84733 185.70494 242.73052 C 185.78345 242.60667 185.96726 242.54048 186.18347 242.52588 z M 179.20198 242.78581 C 179.23372 242.79525 179.28927 242.92019 179.3906 243.16718 C 179.61588 243.71706 179.56922 243.98182 179.29448 243.71392 C 179.21019 243.63167 179.14747 243.35443 179.15547 243.09742 C 179.16217 242.88257 179.17024 242.77637 179.20198 242.78581 z M 181.97132 242.84111 C 182.06445 242.83058 182.27418 242.97287 182.47517 243.1894 C 182.96436 243.71634 182.88537 243.75678 182.26329 243.29792 C 182.0195 243.11808 181.87347 242.91876 181.93877 242.85506 C 181.94693 242.84709 181.95802 242.84261 181.97132 242.84111 z M 189.85198 242.96616 C 189.7962 242.96616 189.68626 243.06696 189.60806 243.19044 C 189.5299 243.31379 189.57535 243.41471 189.70935 243.41471 C 189.84337 243.41471 189.95326 243.31393 189.95326 243.19044 C 189.95326 243.0671 189.90778 242.96616 189.85198 242.96616 z M 190.49432 243.00647 C 190.29813 243.00997 190.22229 243.07108 190.29174 243.18062 C 190.37352 243.30961 190.7106 243.41523 191.04054 243.41523 C 191.77056 243.41523 191.5436 243.12873 190.72944 243.02249 C 190.63816 243.01057 190.55971 243.0053 190.49432 243.00647 z M 192.02342 243.19044 C 191.89691 243.19044 191.79346 243.29123 191.79346 243.41471 C 191.79346 243.53806 191.89689 243.63951 192.02342 243.63951 C 192.14993 243.63951 192.2539 243.5382 192.2539 243.41471 C 192.2539 243.29137 192.15007 243.19044 192.02342 243.19044 z M 193.4037 243.21834 C 193.25776 243.21834 193.11185 243.23252 193.00114 243.26072 C 192.77972 243.3171 192.96086 243.36304 193.4037 243.36304 C 193.84657 243.36304 194.02769 243.31712 193.80626 243.26072 C 193.69555 243.23252 193.54963 243.21834 193.4037 243.21834 z M 83.044027 243.29689 C 83.012263 243.29497 82.981392 243.30223 82.952559 243.31963 C 82.83722 243.38912 82.802245 243.54021 82.875045 243.65501 C 83.091376 243.99629 83.437162 243.89179 83.294141 243.5284 C 83.239728 243.39025 83.139318 243.30266 83.044027 243.29689 z M 178.45061 243.41523 C 178.57712 243.41523 178.68057 243.5666 178.68057 243.75164 C 178.68057 243.93669 178.577 244.08806 178.45061 244.08806 C 178.3241 244.08806 178.22065 243.93669 178.22065 243.75164 C 178.22065 243.5666 178.32409 243.41523 178.45061 243.41523 z M 88.336727 243.4235 C 88.27011 243.39061 88.030978 243.48743 87.682503 243.74441 C 87.079075 244.18935 86.809831 244.17007 86.995207 243.69532 C 87.119674 243.37661 87.093011 243.35663 86.853097 243.58886 C 86.624498 243.81015 86.618122 243.96965 86.825708 244.29373 C 86.973251 244.52408 87.031282 244.77373 86.954382 244.84873 C 86.678488 245.11773 86.230898 244.97809 86.135828 244.59294 C 86.082508 244.37706 86.078336 244.60384 86.126526 245.0973 L 86.214376 245.9944 L 85.735335 245.20944 L 85.256812 244.42447 L 85.371016 245.27662 C 85.473735 246.04167 85.439908 246.11514 85.03822 245.99078 C 84.696314 245.88497 84.590702 245.95822 84.590702 246.30239 C 84.590702 246.55017 84.694128 246.8152 84.820662 246.8915 C 84.947182 246.96775 85.050623 246.87298 85.050623 246.68066 C 85.050623 246.48833 85.222077 246.33081 85.431478 246.33081 C 85.772377 246.33081 85.767887 246.37863 85.390653 246.78505 C 85.103302 247.09465 84.894461 247.16593 84.733846 247.00933 C 84.403875 246.68761 84.130265 246.72326 84.130265 247.08839 C 84.130265 247.25832 83.976049 247.52248 83.787651 247.67492 C 83.599218 247.82737 83.51165 248.05689 83.59283 248.18497 C 83.686936 248.33336 83.831861 248.29761 83.992806 248.08626 C 84.337876 247.63307 85.306082 247.41869 85.671257 247.71419 C 85.872328 247.87659 85.97098 247.87943 85.97098 247.72298 C 85.97098 247.5948 85.847398 247.44952 85.696578 247.40052 C 85.403664 247.30534 86.809478 244.98516 87.160055 244.98516 C 87.265271 244.98516 87.351257 244.84137 87.351257 244.66528 C 87.351257 244.48918 87.62404 244.13547 87.957422 243.8798 C 88.297746 243.6188 88.403344 243.45638 88.336727 243.4235 z M 97.129989 243.71237 C 97.190059 243.72676 97.266552 243.82332 97.322742 243.9661 C 97.478297 244.36131 97.345461 244.43092 97.11862 244.07307 C 97.03524 243.9415 97.016472 243.78564 97.076762 243.72684 C 97.091837 243.71214 97.109965 243.70757 97.129989 243.71237 z M 185.75662 243.73356 C 185.63981 243.72158 185.66606 243.82182 185.81501 244.09323 C 186.10043 244.61316 186.27235 244.66209 186.27235 244.22397 C 186.27235 244.05213 186.1147 243.85268 185.92198 243.78058 C 185.85053 243.75384 185.79556 243.73755 185.75662 243.73356 z M 193.4037 243.89272 C 193.29946 243.89272 193.19546 243.90813 193.11638 243.93923 C 192.95822 244.00126 193.08738 244.0524 193.4037 244.0524 C 193.72005 244.0524 193.84971 244.00143 193.69154 243.93923 C 193.61246 243.90813 193.50794 243.89272 193.4037 243.89272 z M 82.406856 243.93716 C 82.386833 243.93237 82.368705 243.93641 82.35363 243.95111 C 82.293308 244.00991 82.312088 244.16577 82.395487 244.29735 C 82.622337 244.65524 82.755165 244.58562 82.599609 244.19038 C 82.543417 244.04755 82.466925 243.95154 82.406856 243.93716 z M 113.38533 244.20175 C 113.51064 244.18301 113.61161 244.24922 113.75636 244.39036 C 113.93906 244.56847 114.12022 245.12865 114.15892 245.63473 C 114.19762 246.14083 114.18427 246.55457 114.12947 246.55457 C 114.07475 246.55457 113.6435 246.20055 113.17087 245.76754 L 112.31149 244.97999 L 112.86753 244.52317 C 113.10994 244.32412 113.26002 244.22048 113.38533 244.20175 z M 176.35564 244.31233 C 176.46863 244.31233 176.62611 244.47808 176.70601 244.68079 C 176.87673 245.11458 176.82666 245.1831 176.43781 245.04769 C 176.11122 244.93396 176.04173 244.31233 176.35564 244.31233 z M 178.14933 244.31543 C 178.30002 244.31354 178.48764 244.41338 178.56584 244.53661 C 178.74236 244.81507 178.6626 244.81507 178.22065 244.53661 C 178.0133 244.40595 177.98471 244.31643 178.14933 244.31543 z M 202.15924 244.33042 C 201.962 244.34044 202.11141 244.48756 202.491 244.65701 L 202.491 244.6565 C 203.38281 245.05469 203.51897 245.05052 202.96436 244.64151 C 202.71877 244.4604 202.35649 244.32032 202.15924 244.33042 z M 97.780595 244.39708 C 97.870092 244.38133 97.933557 244.43265 97.933557 244.53609 C 97.933557 244.67405 98.036982 244.72453 98.163517 244.64823 C 98.290039 244.57199 98.393477 244.67783 98.393477 244.88336 C 98.393477 245.12393 98.517039 245.21079 98.738676 245.12779 C 98.952603 245.04775 99.083875 245.12878 99.083875 245.34121 C 99.083875 245.52981 99.179878 245.62605 99.297298 245.55515 C 99.414717 245.48439 99.579247 245.63789 99.663167 245.8957 C 99.909426 246.65221 99.706911 246.59177 98.538171 245.56032 C 97.876424 244.97631 97.534318 244.52594 97.68396 244.43584 C 97.718275 244.41514 97.750763 244.40233 97.780595 244.39708 z M 83.775248 244.53661 C 83.648225 244.53866 83.445071 244.70192 83.263652 244.98516 C 83.105614 245.23189 83.060064 245.43371 83.162366 245.43371 C 83.402025 245.43371 83.900305 244.949 83.900305 244.71593 C 83.900305 244.592 83.851462 244.53538 83.775248 244.53661 z M 196.99004 244.78156 C 196.8952 244.77869 196.87816 244.84035 196.95129 244.9557 C 197.04443 245.10274 196.96135 245.20944 196.75337 245.20944 C 196.55611 245.20944 196.39473 245.35755 196.39473 245.53861 C 196.39473 245.78574 196.52336 245.82142 196.91201 245.68124 C 197.4884 245.47335 197.6035 244.9666 197.11045 244.80636 C 197.06194 244.7906 197.02166 244.78251 196.99004 244.78156 z M 195.38497 244.83788 C 195.30249 244.82435 195.24441 244.87374 195.24441 244.97172 C 195.24441 245.10238 195.34785 245.20944 195.47437 245.20944 C 195.60089 245.20944 195.70433 245.16513 195.70433 245.11073 C 195.70433 245.05634 195.60089 244.94932 195.47437 244.87302 C 195.44275 244.85396 195.41247 244.84239 195.38497 244.83788 z M 8.5638184 244.86114 L 18.211808 244.86114 C 22.099763 244.86114 25.087626 245.77378 27.175602 247.59895 C 29.263578 249.40073 30.307711 251.90487 30.307711 255.11064 C 30.307711 258.62059 29.143908 261.38148 26.815934 263.39386 C 24.511962 265.40623 21.391737 266.41228 17.455782 266.41228 L 8.5638184 266.41228 L 8.5638184 244.86114 z M 193.79334 245.01048 C 193.67894 245.01048 193.66482 245.07679 193.7489 245.20944 C 193.82711 245.33276 194.11814 245.42669 194.39537 245.41769 C 194.88128 245.4025 194.88287 245.39529 194.43929 245.20944 C 194.12266 245.07679 193.90774 245.01048 193.79334 245.01048 z M 191.46738 245.37738 C 191.39677 245.36861 191.33154 245.37064 191.27618 245.38462 C 190.71225 245.52687 190.77434 245.83273 191.3909 245.94841 C 192.48739 246.15431 192.58089 246.12181 192.12161 245.69468 C 191.93894 245.52482 191.67921 245.40371 191.46738 245.37738 z M 193.14687 245.43371 C 193.02027 245.43371 192.98082 245.53463 193.05902 245.65799 C 193.13723 245.78133 193.3047 245.88226 193.43109 245.88226 C 193.55769 245.88226 193.59714 245.78147 193.51894 245.65799 C 193.44073 245.53465 193.2734 245.43371 193.14687 245.43371 z M 80.511882 245.45852 C 80.492481 245.47744 80.517156 245.56379 80.579578 245.72362 C 80.665969 245.94485 80.794518 246.0697 80.865348 246.0006 C 80.936176 245.93154 80.865472 245.75017 80.708252 245.59804 C 80.594651 245.48813 80.531282 245.43959 80.511882 245.45852 z M 100.13859 245.66005 C 100.26871 245.64372 100.45882 245.76893 100.54735 245.99388 C 100.62018 246.17892 100.8262 246.3303 101.0052 246.3303 C 101.18421 246.3303 101.38456 246.53212 101.45066 246.77885 C 101.62505 247.42909 101.05234 247.3453 100.48069 246.63674 C 100.21845 246.31169 100.00372 245.95851 100.00372 245.85177 C 100.00372 245.73073 100.06052 245.66985 100.13859 245.66005 z M 188.08671 245.71845 C 188.45994 245.73712 189.23519 245.98324 189.46182 246.20421 C 189.79297 246.52722 189.76614 246.55366 189.1621 246.50496 C 188.61491 246.46081 187.88259 246.04886 187.88259 245.78511 C 187.88259 245.73151 187.9623 245.71222 188.08671 245.71845 z M 175.14848 246.38869 C 175.17838 246.40101 175.15639 246.48179 175.09577 246.63571 C 175.01607 246.8382 174.85838 247.00364 174.74541 247.00364 C 174.44958 247.00364 174.4909 246.87399 174.8901 246.55096 C 175.03656 246.43245 175.11859 246.37637 175.14848 246.38869 z M 113.77962 246.77885 C 113.90615 246.77885 114.07349 246.87964 114.15169 247.00312 C 114.22986 247.12648 114.19044 247.2274 114.06384 247.2274 C 113.93732 247.2274 113.76997 247.12648 113.69177 247.00312 C 113.6136 246.8798 113.65302 246.77885 113.77962 246.77885 z M 82.533464 246.77937 C 82.399473 246.77937 82.290068 246.88028 82.290068 247.00364 C 82.290068 247.127 82.335553 247.22792 82.391353 247.22792 C 82.447149 247.22792 82.557066 247.12712 82.635266 247.00364 C 82.713476 246.88031 82.667458 246.77937 82.533464 246.77937 z M 102.99526 247.06359 C 103.08725 247.06402 103.15383 247.11621 103.22006 247.22068 C 103.31403 247.36899 103.45707 247.48141 103.53787 247.47131 C 103.61833 247.46081 103.69055 247.52767 103.69703 247.61962 L 103.69703 247.62014 C 103.70265 247.71246 103.54767 247.82015 103.35183 247.85992 C 103.1512 247.90065 102.99475 247.78082 102.99475 247.58655 C 102.99475 247.35975 102.85515 247.28289 102.59167 247.36279 C 102.24746 247.46713 102.25142 247.44614 102.61906 247.21758 C 102.78571 247.11436 102.90327 247.06315 102.99526 247.06359 z M 121.79773 247.49095 C 121.82485 247.48561 121.85958 247.4897 121.9016 247.50335 C 122.05194 247.55221 122.21582 247.71189 122.26592 247.85837 C 122.40393 248.262 121.92821 248.17718 121.76776 247.76949 C 121.70327 247.60557 121.71638 247.50696 121.79773 247.49095 z M 124.90814 247.57622 C 125.17516 247.62602 125.52951 248.33743 125.38098 248.72343 C 125.25036 249.06289 125.28177 249.08771 125.56081 248.86709 C 125.8426 248.64426 125.89317 248.69985 125.86777 249.20351 C 125.85102 249.5354 125.93666 249.86993 126.05794 249.94713 C 126.17924 250.02423 126.19006 250.13986 126.08171 250.20396 C 125.83997 250.34703 125.28206 249.79623 125.47658 249.60658 C 125.55334 249.53171 125.51274 249.47067 125.38615 249.47067 C 125.16493 249.47067 125.12061 249.334 125.02441 248.3493 C 125.00031 248.10257 124.89309 247.90074 124.78618 247.90074 C 124.67938 247.90074 124.66084 247.79235 124.74484 247.65993 C 124.78989 247.58886 124.84652 247.56472 124.90814 247.57622 z M 85.273865 247.6868 C 85.241666 247.67239 85.149633 247.73683 84.978792 247.87232 C 84.765313 248.0418 84.590702 248.09729 84.590702 247.99583 C 84.590702 247.89433 84.462033 247.9367 84.304932 248.08988 C 84.077453 248.31168 84.089004 248.41131 84.362292 248.57977 C 84.799862 248.84963 85.050623 248.85397 85.050623 248.59218 C 85.050623 248.47889 85.121793 248.20115 85.208752 247.97516 C 85.278338 247.79434 85.306063 247.70121 85.273865 247.6868 z M 195.48781 247.90074 C 195.62178 247.90074 195.66781 248.00205 195.58961 248.12554 C 195.51142 248.24889 195.4015 248.34981 195.3457 248.34981 C 195.28993 248.34981 195.24441 248.2489 195.24441 248.12554 C 195.24441 248.00221 195.35382 247.90074 195.48781 247.90074 z M 122.97286 247.9426 C 123.00344 247.93541 122.98103 248.05422 122.92996 248.29297 C 122.87059 248.57053 122.91553 248.79785 123.03022 248.79785 C 123.14493 248.79785 123.23899 248.89876 123.23899 249.02212 C 123.23899 249.2859 123.00049 249.30583 122.62559 249.07328 C 122.42664 248.94983 122.44501 248.76288 122.69742 248.34775 C 122.85828 248.08317 122.94227 247.9498 122.97286 247.9426 z M 115.78776 249.54819 C 115.70527 249.53466 115.6472 249.58405 115.6472 249.68203 C 115.6472 249.81269 115.75071 249.91974 115.87716 249.91974 C 116.00365 249.91974 116.10712 249.87492 116.10712 249.82052 C 116.10712 249.76611 116.00376 249.65963 115.87716 249.58333 C 115.84554 249.56427 115.81526 249.5527 115.78776 249.54819 z M 123.9051 249.60297 C 123.91465 249.60209 123.926 249.60773 123.93869 249.62054 C 124.04025 249.72299 124.19215 250.17405 124.27665 250.62254 C 124.38018 251.1722 124.33679 251.49442 124.14384 251.6106 C 123.98642 251.70556 123.91618 251.69083 123.98778 251.57804 C 124.05914 251.46538 124.03564 250.93711 123.93559 250.40395 C 123.84828 249.93745 123.83823 249.60907 123.9051 249.60297 z M 123.09636 249.66601 C 123.16528 249.66986 123.2802 249.81031 123.38988 250.0386 C 123.53848 250.34798 123.56052 250.59205 123.44001 250.59205 C 123.1844 250.59205 122.93208 250.02849 123.04469 249.70942 C 123.05558 249.67857 123.07339 249.66473 123.09636 249.66601 z M 115.15059 249.7952 C 115.0805 249.77661 114.91664 249.86441 114.72685 250.03188 C 114.47379 250.25517 114.26693 250.53897 114.26693 250.66233 C 114.26693 250.78567 114.47379 250.70371 114.72685 250.48043 C 114.97991 250.25715 115.18728 249.97347 115.18728 249.84998 C 115.18728 249.81914 115.17396 249.8014 115.15059 249.7952 z M 83.033175 249.91923 C 83.167826 249.91923 83.14502 250.06172 82.979948 250.25564 C 82.822434 250.44067 82.657889 250.59205 82.614079 250.59205 C 82.570289 250.59205 82.593959 250.44067 82.666789 250.25564 C 82.739618 250.07058 82.904691 249.91923 83.033175 249.91923 z M 113.43597 249.99571 C 113.40847 250.00089 113.37822 250.01283 113.34657 250.03188 C 113.22007 250.10812 113.11661 250.27141 113.11661 250.39465 C 113.11661 250.51815 113.21997 250.55673 113.34657 250.48043 C 113.47306 250.40417 113.57653 250.24115 113.57653 250.11766 C 113.57653 250.02504 113.51847 249.98015 113.43597 249.99571 z M 76.967912 249.99726 C 76.919079 249.98789 76.800277 250.08947 76.660954 250.26908 C 76.475186 250.50854 76.320272 250.79949 76.316272 250.91555 C 76.312247 251.03165 76.460719 250.93074 76.646484 250.69127 C 76.832252 250.4518 76.987683 250.16086 76.991683 250.0448 C 76.992689 250.01577 76.984189 250.00038 76.967912 249.99726 z M 155.37656 250.17812 C 155.35525 250.17233 155.33554 250.17665 155.31972 250.19208 C 155.25642 250.25376 155.27182 250.47393 155.35382 250.68197 C 155.43568 250.89003 155.55459 251.0098 155.61789 250.9481 C 155.68119 250.88642 155.66578 250.66571 155.58378 250.45769 C 155.52238 250.30163 155.44049 250.19552 155.37656 250.17812 z M 163.54351 250.36829 C 163.73058 250.36829 164.24325 250.74676 164.68245 251.20959 C 165.12166 251.67243 165.82178 252.33074 166.23843 252.67255 C 166.88354 253.2018 166.95146 253.34645 166.6968 253.64561 C 166.44849 253.9374 166.45408 253.9891 166.73039 253.9505 C 167.42915 253.8528 167.73168 254.00876 167.17843 254.1815 C 166.86212 254.28022 166.34444 254.36247 166.02811 254.36547 C 165.48476 254.36987 165.23777 254.31716 164.41787 254.0213 C 164.22809 253.95285 163.7104 253.9 163.26755 253.904 C 162.25718 253.91287 161.02124 253.19817 160.91886 252.54594 C 160.87613 252.27355 160.71753 252.07481 160.56694 252.10411 C 160.41587 252.13348 160.34811 252.03256 160.41501 251.87983 C 160.55368 251.56358 163.02755 250.36829 163.54351 250.36829 z M 126.36335 250.40809 C 126.4365 250.38807 126.57133 250.64374 126.80673 251.19305 C 127.00123 251.6469 127.11469 252.12595 127.05839 252.2581 C 127.00208 252.39023 126.94829 252.33263 126.93799 252.12994 C 126.92801 251.92725 126.77709 251.70825 126.60312 251.64315 C 126.42916 251.57806 126.28687 251.26423 126.28687 250.94604 C 126.28687 250.60564 126.30645 250.42365 126.36335 250.40809 z M 82.035303 250.41945 C 82.046627 250.42919 82.052873 250.44905 82.052873 250.47992 C 82.052873 250.60329 81.952796 250.85557 81.830147 251.0406 C 81.707495 251.22576 81.606905 251.2761 81.606905 251.15274 C 81.606905 251.02938 81.707498 250.7771 81.830147 250.59205 C 81.922135 250.45318 82.001329 250.39024 82.035303 250.41945 z M 115.29425 250.44736 C 115.21217 250.46263 115.0815 250.55801 114.96146 250.69902 C 114.78008 250.91219 114.76292 251.04112 114.91547 251.04112 C 115.1935 251.04112 115.51736 250.6153 115.35782 250.45976 C 115.34334 250.44564 115.32162 250.44227 115.29425 250.44736 z M 166.31956 250.45511 C 166.38923 250.45628 166.47187 250.47361 166.57226 250.5042 C 166.84226 250.58652 167.36039 250.89644 167.72361 251.19253 C 168.08683 251.48864 168.73367 251.87308 169.16125 252.04726 C 170.01963 252.39695 170.1842 253.01302 169.57725 253.60479 C 169.37842 253.79865 169.19729 253.94837 169.17469 253.93707 C 168.31033 253.52007 167.18465 252.80633 166.56193 252.28032 C 165.88027 251.70451 165.78311 251.50753 165.9201 250.97808 C 166.01908 250.59537 166.11058 250.45161 166.31956 250.45511 z M 154.47636 250.59257 C 154.25597 250.59257 154.23624 251.13291 154.44897 251.34033 C 154.68845 251.57388 154.72957 251.52315 154.69237 251.04112 C 154.67333 250.79439 154.57586 250.59257 154.47636 250.59257 z M 84.059469 251.2685 C 84.210159 251.26662 84.397264 251.36567 84.475464 251.48916 C 84.651981 251.76763 84.572218 251.76763 84.130265 251.48916 C 83.922932 251.35859 83.894842 251.2695 84.059469 251.2685 z M 79.983748 251.49432 C 80.020326 251.5023 79.993869 251.59011 79.927421 251.76304 C 79.843954 251.98029 79.92636 252.29279 80.11604 252.47773 L 80.11604 252.47824 C 80.326015 252.68296 80.365874 252.85943 80.22146 252.94643 C 80.093962 253.02317 79.989433 252.98225 79.989433 252.85548 C 79.989433 252.72858 79.808296 252.69087 79.586873 252.77177 C 79.243203 252.89736 79.227772 252.86693 79.481453 252.56248 C 79.697646 252.30303 79.706711 252.18221 79.51401 252.11961 C 79.346208 252.06507 79.400446 251.91312 79.662321 251.70516 C 79.847508 251.55813 79.94717 251.48635 79.983748 251.49432 z M 117.24969 251.72325 C 117.37575 251.69458 117.44292 251.79 117.34736 252.03279 C 117.27829 252.2083 117.07244 252.40788 116.88951 252.47618 C 116.62264 252.576 116.60481 252.51311 116.80011 252.15733 C 116.93876 251.90471 117.12363 251.75192 117.24969 251.72325 z M 150.73395 251.93822 C 150.84274 251.93822 150.70494 252.14402 150.42803 252.39556 C 149.80479 252.96161 149.80123 253.15838 150.40012 253.97841 L 150.40064 253.97841 C 150.66235 254.33671 150.77159 254.63005 150.64352 254.63005 C 150.29443 254.63005 149.69474 253.69867 149.69474 253.15675 C 149.69474 252.69262 150.33812 251.93822 150.73395 251.93822 z M 77.702751 252.16198 C 77.836731 252.16198 77.882246 252.26278 77.804036 252.38626 C 77.725838 252.50962 77.61644 252.61053 77.56064 252.61053 C 77.504841 252.61053 77.458838 252.50975 77.458838 252.38626 C 77.458838 252.26293 77.568757 252.16198 77.702751 252.16198 z M 78.315116 252.24105 C 78.370559 252.23405 78.423591 252.27466 78.478931 252.36197 C 78.565484 252.4986 78.552876 252.61264 78.450509 252.61364 C 78.348146 252.61554 78.416311 252.71084 78.602437 252.82551 C 78.788565 252.94028 78.892187 253.08192 78.832397 253.14022 C 78.59883 253.36796 77.956675 252.68907 78.136833 252.40486 C 78.201799 252.30236 78.259674 252.24805 78.315116 252.24105 z M 75.40625 252.27981 C 75.214163 252.25652 75.049451 252.41292 74.921008 252.74231 C 74.798534 253.05639 74.698283 253.3574 74.698283 253.411 C 74.698286 253.6723 75.085188 253.43827 75.43984 252.96245 C 75.785174 252.49915 75.791634 252.41377 75.489966 252.30099 C 75.461425 252.29032 75.433691 252.28313 75.40625 252.27981 z M 151.25433 252.39401 C 151.68905 252.38349 151.88396 253.07336 151.51117 253.30352 C 151.07077 253.57533 150.4432 253.5583 150.26008 253.26941 C 150.09486 253.00876 150.7799 252.40531 151.25433 252.39401 z M 77.066614 252.4059 C 77.084729 252.40472 77.098495 252.40804 77.107955 252.41726 C 77.170643 252.47836 76.861093 252.86976 76.420142 253.28646 C 75.979193 253.70321 75.61864 253.94219 75.61864 253.8177 C 75.61864 253.54597 76.794887 252.42354 77.066614 252.4059 z M 158.71228 253.08182 C 158.72618 253.07875 158.7352 253.08005 158.73915 253.08596 C 158.77071 253.13321 158.92558 253.33759 159.08331 253.53968 C 159.47272 254.03859 159.0467 254.93396 158.2384 255.3158 C 157.28395 255.76669 156.68486 255.78935 156.34291 255.38763 C 156.06796 255.06461 156.1 254.97052 156.59354 254.65537 C 156.9051 254.45641 157.50266 254.0023 157.92111 253.64665 C 158.28726 253.33543 158.61492 253.10331 158.71228 253.08182 z M 81.649797 253.84353 C 81.706257 253.86685 81.716515 253.99478 81.66685 254.17995 L 81.666333 254.17995 C 81.525861 254.70372 81.36971 254.76977 81.36971 254.30552 C 81.36971 254.12775 81.463761 253.92565 81.578483 253.85645 C 81.607166 253.83917 81.630976 253.83576 81.649797 253.84353 z M 117.45898 254.28227 C 117.49517 254.28753 117.53958 254.29978 117.59076 254.31896 C 117.78714 254.39242 117.94784 254.49215 117.94784 254.54065 C 117.94784 254.7223 117.50933 254.61994 117.37423 254.40681 C 117.31378 254.31148 117.35042 254.26647 117.45898 254.28227 z M 77.352384 254.49362 C 77.375754 254.48821 77.396689 254.49343 77.414396 254.51068 C 77.485228 254.57976 77.414521 254.76056 77.2573 254.91272 C 77.030099 255.13254 77.003782 255.10682 77.128625 254.78715 C 77.193418 254.62122 77.282276 254.50987 77.352384 254.49362 z M 75.242436 254.70653 C 75.263358 254.70963 75.28828 254.74382 75.315816 254.81092 C 75.382266 254.97283 75.373653 255.16647 75.297213 255.24087 C 75.220767 255.31541 75.166907 255.18275 75.176807 254.94631 C 75.183702 254.78294 75.207565 254.70136 75.242436 254.70653 z M 80.32688 254.73237 C 80.340749 254.73741 80.355883 254.75841 80.371838 254.79696 C 80.435658 254.95117 80.435658 255.20345 80.371838 255.35765 C 80.308022 255.51185 80.256083 255.38597 80.256083 255.07757 C 80.256083 254.84622 80.285273 254.71724 80.32688 254.73237 z M 115.18728 254.85329 C 115.31377 254.85329 115.41724 254.95421 115.41724 255.07757 C 115.41724 255.20092 115.31374 255.30184 115.18728 255.30184 C 115.06078 255.30184 114.95681 255.20106 114.95681 255.07757 C 114.95681 254.95421 115.06068 254.85329 115.18728 254.85329 z M 162.70428 254.85433 C 163.11026 254.85433 163.80924 255.55836 163.57193 255.72817 C 163.46768 255.80278 163.34799 256.06539 163.30579 256.31212 C 163.26357 256.55885 163.16023 256.82823 163.07583 256.91053 C 162.89034 257.09159 161.42684 257.32641 161.42684 257.17511 C 161.42684 256.73976 162.46472 254.85433 162.70428 254.85433 z M 79.672656 255.1649 C 79.700603 255.16399 79.730943 255.1724 79.76309 255.19177 C 79.891677 255.26926 79.937693 255.42682 79.864893 255.54162 C 79.667685 255.85272 79.529513 255.79454 79.529513 255.40055 C 79.529513 255.25625 79.588817 255.16763 79.672656 255.1649 z M 72.027128 255.37781 C 72.109622 255.36225 72.167688 255.40663 72.167688 255.49925 L 72.167688 255.49976 C 72.167688 255.62311 72.064263 255.78623 71.937728 255.86253 C 71.811209 255.93876 71.707768 255.90023 71.707768 255.77675 C 71.707768 255.65339 71.811206 255.49028 71.937728 255.41398 C 71.969358 255.39492 71.99963 255.38299 72.027128 255.37781 z M 74.085917 255.61139 C 74.148096 255.61291 74.155172 255.70095 74.096252 255.85065 C 73.943319 256.23925 73.777926 256.31023 73.777926 255.98759 C 73.777926 255.87151 73.880743 255.71511 74.005819 255.63981 C 74.038421 255.62016 74.065191 255.61088 74.085917 255.61139 z M 155.97136 255.85168 C 156.04225 255.83825 156.12732 255.85376 156.23439 255.88475 C 157.32909 256.20176 158.07645 257.63714 157.46222 258.24275 C 157.28783 258.41468 157.08165 258.71925 157.00385 258.91971 C 156.81424 259.4084 155.8144 259.38374 155.49335 258.8825 C 155.30402 258.58643 155.3046 258.12264 155.49697 257.11414 C 155.67277 256.19247 155.75869 255.89198 155.97136 255.85168 z M 74.673478 256.02686 C 74.684803 256.03659 74.691565 256.05646 74.691565 256.08733 C 74.691565 256.21069 74.590972 256.46296 74.468323 256.64801 C 74.345671 256.83317 74.245081 256.88363 74.245081 256.76015 C 74.245081 256.63679 74.345661 256.3845 74.468323 256.19946 C 74.560311 256.06067 74.639505 255.99767 74.673478 256.02686 z M 79.652502 256.06407 C 79.675872 256.05865 79.697323 256.06387 79.715031 256.08112 C 79.78586 256.15018 79.715155 256.33153 79.557935 256.48368 C 79.330734 256.70349 79.304416 256.67777 79.42926 256.35811 C 79.494053 256.19218 79.582393 256.08032 79.652502 256.06407 z M 71.309859 256.19998 C 71.089257 256.19998 70.32749 257.15047 70.32749 257.42574 C 70.32749 257.4917 70.430915 257.54563 70.55745 257.54563 C 70.683971 257.54563 70.78741 257.42761 70.78741 257.28312 C 70.78741 257.13862 70.958864 256.83588 71.168266 256.61029 C 71.377668 256.38469 71.441445 256.19998 71.309859 256.19998 z M 70.247392 256.25011 C 70.213206 256.26278 70.165155 256.32223 70.09753 256.42426 C 69.974881 256.6093 69.872571 256.83663 69.870671 256.92913 C 69.868735 257.02175 69.970995 257.09708 70.09753 257.09708 C 70.224068 257.09708 70.325773 256.87029 70.323873 256.59272 C 70.322093 256.33766 70.304368 256.22898 70.247392 256.25011 z M 152.72918 256.52399 C 152.77414 256.50592 152.85911 256.61984 152.99635 256.87281 C 153.19605 257.24101 153.22449 257.53001 153.07955 257.7141 C 152.95795 257.86827 152.94151 257.9947 153.04234 257.9947 C 153.14315 257.9947 152.97732 258.25237 152.67389 258.56728 C 152.20872 259.05006 152.17509 259.17235 152.46098 259.34862 C 152.64746 259.4635 152.90956 259.56001 153.04337 259.56101 C 153.36459 259.56556 153.98323 261.01687 154.14408 262.1438 C 154.24061 262.82013 154.16677 263.16534 153.84436 263.54578 C 153.38049 264.09317 152.7036 264.2209 152.6558 263.77006 C 152.6394 263.61585 152.60135 263.23769 152.57105 262.92928 C 152.54082 262.62085 152.29659 261.71214 152.02845 260.91029 C 151.27386 258.65379 151.42238 256.61051 152.3168 256.94515 C 152.56596 257.03835 152.68587 256.95836 152.68887 256.69762 C 152.68979 256.59328 152.7022 256.53483 152.72918 256.52399 z M 73.561918 256.64801 C 73.695905 256.64801 73.741404 256.74893 73.663204 256.87229 C 73.585005 256.99562 73.475081 257.09657 73.419291 257.09657 C 73.363494 257.09657 73.318005 256.99577 73.318005 256.87229 C 73.318005 256.74894 73.427923 256.64801 73.561918 256.64801 z M 76.665088 256.71209 C 76.677807 256.71422 76.688588 256.71927 76.697127 256.7276 C 76.754094 256.78314 76.664935 257.04039 76.499207 257.29914 C 76.186561 257.78725 75.8486 257.9233 75.8486 257.56114 C 75.8486 257.31041 76.474296 256.68014 76.665088 256.71209 z M 72.257088 257.17305 C 72.339581 257.15749 72.397648 257.20239 72.397648 257.295 C 72.397648 257.41837 72.294223 257.58147 72.167688 257.65777 C 72.041166 257.734 71.937728 257.69599 71.937728 257.57251 C 71.937728 257.44916 72.041153 257.28552 72.167688 257.20922 C 72.199318 257.19017 72.22959 257.17823 72.257088 257.17305 z M 173.71498 257.29035 C 173.24429 257.29035 172.81416 257.4567 172.42462 257.78903 C 172.05132 258.10552 171.86496 258.52461 171.86496 259.04683 C 171.86496 259.58488 172.05132 260.02832 172.42462 260.37647 C 172.79792 260.72461 173.22806 260.8984 173.71498 260.8984 C 174.23436 260.8984 174.68113 260.71666 175.05443 260.3527 C 175.42774 259.98872 175.61409 259.55323 175.61409 259.04683 C 175.61409 258.50879 175.41917 258.08176 175.02963 257.76526 C 174.65633 257.44876 174.21812 257.29035 173.71498 257.29035 z M 74.836259 258.29753 C 74.85154 258.29992 74.864077 258.30542 74.873466 258.31458 C 74.94858 258.38782 74.810326 258.59466 74.566508 258.7745 C 73.905186 259.26225 73.70969 259.1825 74.257483 258.64841 C 74.488132 258.4236 74.729292 258.28074 74.836259 258.29753 z M 72.990894 258.45462 C 73.069604 258.46338 73.088045 258.52393 73.088045 258.64117 C 73.088045 258.75016 72.88118 258.89252 72.628125 258.95692 C 72.084847 259.09542 72.003278 258.77678 72.53149 258.57916 C 72.772954 258.48878 72.912183 258.44586 72.990894 258.45462 z M 163.03759 258.66753 C 163.16409 258.66753 163.26755 258.76846 163.26755 258.89181 C 163.26755 259.01516 163.16398 259.11608 163.03759 259.11608 C 162.91108 259.11608 162.80712 259.01529 162.80712 258.89181 C 162.80712 258.76848 162.91093 258.66753 163.03759 258.66753 z M 71.408044 258.89181 C 71.452168 258.89181 71.318679 259.14408 71.111422 259.45249 C 70.904162 259.7609 70.624819 260.01318 70.490788 260.01318 C 70.356757 260.01318 70.490247 259.7609 70.78741 259.45249 C 71.084576 259.14408 71.363914 258.89181 71.408044 258.89181 z M 155.15022 259.31762 L 155.98789 259.79976 C 156.44881 260.06491 156.84266 260.4482 156.86226 260.6519 C 156.96892 261.75112 156.93587 262.25594 156.75736 262.25594 C 156.64872 262.25594 156.60122 262.38233 156.65452 262.53654 C 156.7078 262.69074 156.58721 262.95042 156.38632 263.11377 C 156.16907 263.29033 156.15182 263.34481 156.34395 263.24761 C 156.54088 263.14793 156.60976 263.17445 156.52016 263.31582 C 156.43933 263.44336 156.16437 263.60119 155.90935 263.66619 C 155.48786 263.77369 155.44581 263.67665 155.44581 262.60269 C 155.44581 261.95296 155.37931 260.94833 155.29801 260.36975 L 155.15022 259.31762 z M 161.10386 259.97288 C 160.74679 260.09947 160.37357 260.21815 159.98403 260.32893 C 159.5945 260.45553 159.22128 260.58215 158.8642 260.70875 L 158.8642 267.02257 L 154.38437 267.02257 L 154.38437 269.01677 L 158.8642 269.01677 L 158.8642 285.34807 C 158.8642 289.65242 160.70614 291.80452 164.39048 291.80452 C 165.41301 291.80452 166.50901 291.53538 167.67762 290.99734 L 167.67762 288.95612 C 166.6064 289.54164 165.60812 289.8341 164.68297 289.8341 C 163.38453 289.8341 162.45927 289.46218 161.90743 288.71841 C 161.37182 287.95882 161.10386 286.74025 161.10386 285.06282 L 161.10386 269.01677 L 167.67762 269.01677 L 167.67762 267.02257 L 161.10386 267.02257 L 161.10386 259.97288 z M 81.127865 266.42933 C 77.459754 266.42933 74.456833 267.66379 72.119629 270.13246 C 69.782426 272.58531 68.6139 275.74195 68.6139 279.6032 C 68.6139 283.27455 69.652475 286.24998 71.729989 288.52876 C 73.807503 290.7917 76.542466 291.92286 79.934656 291.92286 C 82.499087 291.92286 84.706704 291.3692 86.556991 290.26147 L 86.556991 287.98254 C 84.706704 289.28017 82.531832 289.92919 80.032324 289.92919 C 77.305586 289.92919 75.106026 288.97182 73.434277 287.05701 C 71.778758 285.14221 70.951225 282.61024 70.951225 279.46109 C 70.951225 276.20118 71.859849 273.55052 73.677673 271.50912 C 75.495498 269.45189 77.865296 268.42301 80.7868 268.42301 C 82.913006 268.42301 84.868779 268.96129 86.654142 270.03738 L 86.654142 267.56879 C 84.868779 266.80921 83.026843 266.42933 81.127865 266.42933 z M 117.37888 266.42933 C 114.06785 266.42933 111.37368 267.6479 109.29617 270.08492 C 107.23489 272.50612 106.20385 275.48896 106.20385 279.03373 C 106.20385 283.13235 107.19408 286.3054 109.17421 288.55253 C 111.15435 290.79964 113.7513 291.92286 116.96495 291.92286 C 120.14615 291.92286 123.02717 291.02906 125.60784 289.24086 L 125.60784 286.91438 C 122.94602 288.92414 120.21911 289.92919 117.42746 289.92919 C 114.66825 289.92919 112.49338 288.9877 110.90279 287.10455 C 109.32843 285.2214 108.54118 282.60996 108.54118 279.27092 L 126.99535 279.27092 L 126.99535 278.29786 C 126.99535 274.62649 126.16781 271.73054 124.5123 269.61001 C 122.85678 267.4895 120.47893 266.42933 117.37888 266.42933 z M 142.26005 266.42933 C 140.86422 266.42933 139.37134 266.68258 137.78074 267.18897 C 136.20637 267.69537 134.95676 268.30466 134.03161 269.01677 L 134.03161 271.65123 C 136.6285 269.49906 139.29797 268.42301 142.04094 268.42301 C 146.06613 268.42301 148.07882 271.03445 148.07882 276.25664 L 140.41003 277.37233 C 134.64818 278.25852 131.76715 280.82177 131.76715 285.06282 C 131.76715 287.04092 132.45719 288.67909 133.83679 289.97673 C 135.21638 291.27436 137.09107 291.92286 139.46074 291.92286 C 141.31102 291.92286 142.99078 291.43225 144.50022 290.45112 C 146.0259 289.45415 147.18637 288.12486 147.98167 286.46325 L 148.07882 286.46325 L 148.07882 291.32962 L 150.31899 291.32962 L 150.31899 275.52076 C 150.31899 272.56151 149.61283 270.30611 148.20077 268.75529 C 146.80493 267.20445 144.82447 266.42933 142.26005 266.42933 z M 193.11896 266.42933 C 189.49954 266.42933 186.57771 267.56844 184.35412 269.84721 C 182.14676 272.12599 181.04321 275.28314 181.04321 279.31847 C 181.04321 283.05311 182.09842 286.09159 184.20839 288.43367 C 186.3346 290.75992 189.21563 291.92286 192.85128 291.92286 C 196.50316 291.92286 199.37561 290.75197 201.46936 288.4099 C 203.57933 286.06782 204.63454 283.0055 204.63454 279.22338 C 204.63454 275.2197 203.60401 272.08639 201.54274 269.82344 C 199.48145 267.56049 196.67346 266.42933 193.11896 266.42933 z M 101.82169 266.54819 C 100.19863 266.54819 98.770206 267.06211 97.536682 268.09073 C 96.303157 269.11934 95.402591 270.55938 94.834521 272.41088 L 94.736853 272.41088 L 94.736853 267.02257 L 92.545772 267.02257 L 92.545772 291.32962 L 94.736853 291.32962 L 94.736853 279.91223 C 94.736853 276.27251 95.402723 273.46345 96.73363 271.48535 C 98.064538 269.50725 99.71155 268.51809 101.67545 268.51809 C 102.68175 268.51809 103.55866 268.77929 104.30526 269.30151 L 104.30526 266.97503 C 103.57488 266.69019 102.74683 266.54819 101.82169 266.54819 z M 172.61944 267.02257 L 172.61944 291.32962 L 174.85961 291.32962 L 174.85961 267.02257 L 172.61944 267.02257 z M 117.28121 268.42301 C 119.53726 268.42301 121.30668 269.19865 122.5889 270.74948 C 123.87111 272.30032 124.56064 274.47626 124.65802 277.27725 L 108.63885 277.27725 C 108.99592 274.42878 109.93729 272.24489 111.46296 270.72571 C 113.00487 269.1907 114.94401 268.42301 117.28121 268.42301 z M 193.02129 268.42301 C 195.97526 268.42301 198.25591 269.34911 199.86274 271.20061 C 201.48579 273.05211 202.29721 275.71072 202.29721 279.17635 C 202.29721 282.54704 201.48579 285.1818 199.86274 287.08078 C 198.23968 288.97976 195.9268 289.92919 192.92414 289.92919 C 189.97017 289.92919 187.64118 288.96386 185.93697 287.03324 C 184.23275 285.10261 183.38054 282.5468 183.38054 279.36601 C 183.38054 275.93202 184.24887 273.24958 185.98555 271.31895 C 187.73845 269.38832 190.08356 268.42301 193.02129 268.42301 z M 148.07882 278.25031 L 148.07882 280.62433 C 148.07882 283.36203 147.28351 285.60102 145.69292 287.34175 C 144.10231 289.06666 142.10626 289.92919 139.70413 289.92919 C 137.95124 289.92919 136.57972 289.46242 135.58966 288.52876 C 134.61582 287.5951 134.12876 286.40831 134.12876 284.96825 C 134.12876 283.13256 134.65611 281.81122 135.7111 281.00415 C 136.76609 280.18126 138.60049 279.58735 141.2136 279.22338 L 148.07882 278.25031 z " /></g></svg>
